<svg class="index-services__content-icon" alt="Circular saw icon" width="35.000000" height="35.000000" viewBox="0 0 35 35" fill="none" xmlns="http://www.w3.org/2000/svg" xmlns:xlink="http://www.w3.org/1999/xlink">
	<path id="Vector" d="M18.36 17.24C18.36 17.93 17.8 18.49 17.11 18.49C16.41 18.49 15.85 17.93 15.85 17.24C15.85 16.55 16.41 15.99 17.11 15.99C17.8 15.99 18.36 16.55 18.36 17.24Z" fill="#FFFFFF" fill-opacity="1.000000" fill-rule="evenodd"/>
	<path id="Vector" d="M34.04 12.7L33.69 11.38L31.3 12.02C31.35 11.83 31.39 11.64 31.42 11.46C31.9 8.87 31.24 6.58 29.5 4.84L28.53 3.87L26.79 5.62C26.74 5.43 26.68 5.25 26.62 5.07C25.73 2.59 24.01 0.94 21.64 0.3L20.32 -0.05L19.68 2.33C19.54 2.2 19.4 2.07 19.26 1.95C17.25 0.24 14.94 -0.33 12.57 0.3L11.25 0.66L11.88 3.04C10.72 2.75 9.29 2.62 7.83 3.02C6.66 3.33 5.61 3.94 4.71 4.84L3.74 5.81L5.48 7.55C3.49 8.13 1.03 9.5 0.17 12.7L-0.18 14.02L2.2 14.66C2.07 14.8 1.94 14.94 1.82 15.09C0.1 17.09 -0.46 19.41 0.17 21.78L0.53 23.1L2.91 22.46C2.86 22.65 2.82 22.83 2.79 23.02C2.31 25.61 2.97 27.9 4.71 29.64L5.68 30.6L7.42 28.86C7.47 29.04 7.53 29.23 7.6 29.4C8.48 31.89 10.2 33.54 12.57 34.17L13.89 34.53L14.53 32.15C14.67 32.28 14.81 32.41 14.95 32.53C16.96 34.24 19.27 34.81 21.64 34.17L22.97 33.82L22.33 31.44C23.49 31.72 24.92 31.85 26.38 31.46C27.56 31.15 28.61 30.53 29.5 29.64L30.47 28.67L28.73 26.92C30.72 26.34 33.18 24.98 34.04 21.78L34.4 20.45L32.01 19.82C32.15 19.68 32.27 19.54 32.4 19.39C34.11 17.39 34.68 15.07 34.04 12.7ZM19.29 25.39C14.79 26.6 10.16 23.92 8.95 19.42C7.75 14.93 10.42 10.29 14.92 9.08C19.42 7.88 24.06 10.56 25.26 15.05C26.47 19.55 23.79 24.19 19.29 25.39Z" fill="#FFFFFF" fill-opacity="1.000000" fill-rule="nonzero"/>
	<path id="Vector" d="M15.45 11.07C12.05 11.98 10.02 15.49 10.94 18.89C11.85 22.29 15.36 24.32 18.76 23.41C22.16 22.5 24.19 18.99 23.28 15.59C22.36 12.18 18.85 10.16 15.45 11.07ZM17.96 20.43C16.2 20.9 14.38 19.86 13.91 18.09C13.44 16.33 14.49 14.52 16.25 14.05C18.01 13.57 19.83 14.62 20.3 16.38C20.77 18.14 19.72 19.96 17.96 20.43Z" fill="#FFFFFF" fill-opacity="1.000000" fill-rule="nonzero"/>
</svg>
