<svg class="catalog-top__img" alt="price list" width="37.000000" height="42.000000" viewBox="0 0 37 42" fill="none" xmlns="http://www.w3.org/2000/svg" xmlns:xlink="http://www.w3.org/1999/xlink">
	<path id="Vector" d="M7.96 2.92L7.96 5.33L19.79 5.33C21.25 5.33 22.33 6.44 22.33 7.8L22.33 16.48C22.33 17.14 22.11 17.68 21.81 18.06C21.48 18.46 21.11 18.77 20.53 18.92C19.91 19.08 13.29 18.99 12.07 18.99L8.37 18.99C8.15 18.99 7.96 18.94 7.96 19.15L7.96 35.83C7.96 36.64 8.08 37.24 8.44 37.71C8.79 38.18 9.22 38.52 9.86 38.69C10.47 38.79 21.51 38.69 24 38.69C23.87 38.5 23.2 37.65 22.43 36.69C21.38 35.38 22.31 33.42 23.99 33.42L26.44 33.42L26.44 28.77C26.44 27.11 27.78 25.77 29.44 25.77L31.25 25.77C32.91 25.77 34.25 27.11 34.25 28.77L34.25 33.42L35.07 33.42L35.07 7.95L27.2 7.95L27.2 0L10.4 0C9.39 0 8.45 0.7 8.12 1.69C8 2.05 7.96 2.45 7.96 2.92Z" fill="#C2C4C7" fill-opacity="1.000000" fill-rule="evenodd"/>
	<path id="Vector" d="M10.25 14.94L8.27 14.94L8.27 9.49L10.7 9.49C12.04 9.49 12.79 10.65 12.79 12.01C12.79 12.87 12.72 13.69 12.11 14.31C11.67 14.76 11.12 14.94 10.25 14.94L10.25 14.94ZM5.68 12.83L4.31 12.83L4.31 14.94L3.24 14.94L3.24 9.49L5.78 9.49C7.91 9.49 7.9 12.83 5.68 12.83L5.68 12.83ZM14.82 11.7L17.1 11.7L17.1 12.57L14.97 12.57C14.85 12.57 14.82 12.61 14.82 12.73L14.82 14.94L13.75 14.94L13.75 9.49L17.45 9.49L17.45 10.37L14.82 10.37L14.82 11.7L14.82 11.7ZM0 9.49L0 14.94C0 15.69 0.31 16.26 0.69 16.64C1.13 17.08 1.64 17.4 2.33 17.4L18.37 17.4C19.75 17.4 20.7 16.18 20.7 14.58L20.7 9.75C20.7 8.54 20.19 7.58 19.25 7.17C18.91 7.02 18.57 6.93 18.11 6.93L2.58 6.93C1.11 6.93 0 8.01 0 9.49L0 9.49Z" fill="#C2C4C7" fill-opacity="1.000000" fill-rule="evenodd"/>
	<path id="Vector" d="M28.42 35.42L26.09 35.42C25.2 35.42 24.75 36.5 25.36 37.14C26.69 38.54 27.99 39.94 29.34 41.31C29.6 41.58 29.87 42 30.35 42C30.82 42 31.07 41.6 31.32 41.34C31.66 41 33.82 38.74 35.38 37.11C35.99 36.48 35.54 35.42 34.66 35.42L32.27 35.42L32.27 28.82C32.27 28.27 31.83 27.82 31.27 27.82L29.42 27.82C28.87 27.82 28.42 28.27 28.42 28.82L28.42 35.42Z" fill="#C2C4C7" fill-opacity="1.000000" fill-rule="evenodd"/>
	<path id="Vector" d="M28.98 6.16L35.07 6.16C34.91 5.91 30.11 1.12 29.39 0.39C29.26 0.26 29.17 0.1 28.98 0.05L28.98 6.16Z" fill="#C2C4C7" fill-opacity="1.000000" fill-rule="evenodd"/>
	<path id="Vector" d="M9.33 14.01C11.04 14.01 11.67 14.22 11.67 12.01C11.67 10.17 10.54 10.37 9.33 10.37L9.33 14.01Z" fill="#C2C4C7" fill-opacity="1.000000" fill-rule="evenodd"/>
	<path id="Vector" d="M4.31 11.96C5.09 11.96 6.24 12.11 6.24 11.14C6.24 10.21 5.11 10.37 4.31 10.37L4.31 11.96Z" fill="#C2C4C7" fill-opacity="1.000000" fill-rule="evenodd"/>
</svg>
