<svg width="20.000000" height="15.480572" viewBox="0 0 20 15.4806" fill="none" xmlns="http://www.w3.org/2000/svg" xmlns:xlink="http://www.w3.org/1999/xlink">
	<path id="Vector" d="M0 3.57L0 12C0 13.7 1.79 15.48 3.47 15.48L16.52 15.48C18.2 15.48 20 13.68 20 12L20 3.57C20 2.71 19.63 2.22 19.57 1.96C19.28 1.96 19.3 2.02 18.95 2.39C18.2 3.14 13.39 7.99 13.12 8.2C12.45 8.73 11.86 9.03 10.98 9.24C9.48 9.57 8.09 9.14 6.93 8.22C6.62 7.97 1.88 3.19 1.1 2.41C1 2.31 0.94 2.24 0.83 2.14C0.69 2 0.71 1.96 0.44 1.96C0.4 2.16 0.24 2.41 0.16 2.67C0.08 2.94 0.02 3.25 0.02 3.57L0 3.57Z" fill="#000000" fill-opacity="1.000000" fill-rule="evenodd"/>
	<path id="Vector" d="M1.55 0.79C1.55 0.94 3.33 2.63 3.45 2.76L7.34 6.64C8.09 7.4 8.85 7.91 9.97 7.91C10.18 7.91 10.65 7.83 10.81 7.79C11.04 7.75 11.34 7.62 11.51 7.54C11.67 7.44 11.96 7.28 12.1 7.15L17.95 1.3C18.34 0.92 18.6 0.79 18.26 0.59C18.18 0.55 18.13 0.51 18.03 0.47C17.58 0.22 16.99 0 16.42 0L3.55 0C2.9 0 1.55 0.49 1.55 0.79Z" fill="#000000" fill-opacity="1.000000" fill-rule="evenodd"/>
</svg>
