<svg class="footer__logo-img" alt="company logo" width="255.000000" height="76.996094" viewBox="0 0 255 76.9961" fill="none" xmlns="http://www.w3.org/2000/svg" xmlns:xlink="http://www.w3.org/1999/xlink">
	<path id="Vector" d="M39.21 7.71C52.93 7.71 64.46 17.08 67.75 29.76L55.89 29.76C53.05 23.38 46.65 18.93 39.21 18.93L39.21 7.71ZM39.21 55.41C47.03 55.41 53.71 50.49 56.3 43.57L68 43.57C65.07 56.76 53.29 66.63 39.21 66.63L39.21 55.41Z" fill="#16154F" fill-opacity="1.000000" fill-rule="evenodd"/>
	<path id="Vector" d="M38.61 0L38.61 24.69L36.48 24.69L36.48 0L38.61 0ZM36.49 74.35L36.02 49.65L38.14 49.62L38.61 74.31L36.49 74.35ZM29.61 73.58L33.72 49.23L35.82 49.57L31.71 73.93L29.61 73.58ZM22.99 71.56L31.55 48.38L33.55 49.11L24.99 72.29L22.99 71.56ZM16.87 68.34L29.57 47.14L31.39 48.23L18.69 69.43L16.87 68.34ZM11.44 64.06L27.85 45.57L29.44 46.97L13.03 65.46L11.44 64.06ZM6.91 58.84L26.46 43.7L27.76 45.37L8.21 60.52L6.91 58.84ZM3.41 52.89L25.44 41.61L26.4 43.49L4.38 54.77L3.41 52.89ZM1.08 46.38L24.81 39.36L25.41 41.39L1.68 48.42L1.08 46.38ZM0 39.56L24.62 37.04L24.84 39.15L0.21 41.67L0 39.56ZM0.19 32.66L24.86 34.72L24.68 36.84L0.01 34.78L0.19 32.66ZM1.66 25.91L25.52 32.49L24.96 34.53L1.1 27.96L1.66 25.91ZM4.36 19.56L26.59 30.42L25.66 32.32L3.43 21.46L4.36 19.56ZM8.19 13.8L28.02 28.58L26.75 30.28L6.91 15.5L8.19 13.8ZM13.01 8.85L29.77 27.03L28.21 28.47L11.45 10.29L13.01 8.85ZM18.68 4.88L31.78 25.84L29.97 26.96L16.87 6L18.68 4.88ZM24.97 2.02L33.97 25.03L31.99 25.81L22.99 2.8L24.97 2.02ZM31.69 0.38L36.27 24.65L34.18 25.04L29.61 0.77L31.69 0.38Z" fill="#16154F" fill-opacity="1.000000" fill-rule="evenodd"/>
	<path id="СТАЛЬ ДВ" d="M103.56 29.64Q104.5 29.04 105.82 29.04Q106.79 29.04 107.81 29.39Q108.82 29.74 109.82 30.22L111.05 27.14Q111.01 27.12 110.98 27.11Q109.79 26.56 108.48 26.23Q107.15 25.89 105.82 25.89Q103.12 25.89 101.26 27.07Q100.57 27.5 100.01 28.06Q99.04 29.01 98.42 30.32Q97.45 32.39 97.45 35.09Q97.45 37.84 98.3 39.9Q98.84 41.22 99.76 42.16Q100.28 42.69 100.93 43.11Q102.72 44.24 105.47 44.24Q106.9 44.24 108.04 44.02Q109.2 43.79 110.37 43.31L110.37 40.14Q109.09 40.59 108.01 40.84Q107.15 41.04 106.29 41.08Q106.06 41.09 105.82 41.09Q104.09 41.09 103.05 40.24Q102.69 39.94 102.41 39.53Q101.35 37.97 101.35 35.12Q101.35 32.29 102.5 30.67Q102.95 30.03 103.56 29.64ZM136.52 39.74L137.82 43.99L141.89 43.99L135.57 26.07L130.94 26.07L124.65 43.99L128.72 43.99L130.02 39.74L136.52 39.74ZM117.27 43.99L121.05 43.99L121.05 29.29L125.9 29.29L125.9 26.14L112.42 26.14L112.42 29.29L117.27 29.29L117.27 43.99ZM154.49 43.99L158.27 43.99L158.27 26.14L147 26.14Q146.69 28.71 146.36 31Q146.02 33.29 145.75 34.99Q145.47 36.69 145.32 37.49Q144.92 39.59 144.53 40.35Q144.28 40.85 143.89 41.02Q143.68 41.12 143.42 41.12Q143.04 41.12 142.73 41.04Q142.42 40.96 142.1 40.87L142.1 43.97Q142.92 44.24 143.9 44.24Q145.39 44.24 146.33 43.67Q146.5 43.57 146.65 43.45Q147.37 42.9 147.81 42Q148.35 40.89 148.67 39.34Q148.87 38.39 149.07 37.16Q149.27 35.92 149.46 34.53Q149.65 33.14 149.81 31.79Q149.97 30.44 150.12 29.29L154.49 29.29L154.49 43.99ZM162.77 26.14L162.77 43.99L167.97 43.99Q171.82 43.99 173.58 42.53Q174.12 42.09 174.49 41.53Q175.35 40.26 175.35 38.42Q175.35 37.22 174.9 36.23Q174.76 35.91 174.57 35.62L174.57 35.61Q173.79 34.39 172.18 33.69Q170.57 32.99 168.05 32.99L166.54 32.99L166.54 26.14L162.77 26.14ZM198.49 40.84L198.49 26.14L188.09 26.14Q187.69 29.44 187.03 32.06Q186.37 34.69 185.54 36.83Q184.72 38.97 183.77 40.84L182.39 40.84L182.39 49.19L186.04 49.19L186.04 43.99L197.22 43.99L197.22 49.19L200.87 49.19L200.87 40.84L198.49 40.84ZM214.57 27.14Q212.74 26.14 209.17 26.14L203.62 26.14L203.62 43.99L210.29 43.99Q213.34 43.99 215.09 42.62Q215.77 42.08 216.19 41.38Q216.84 40.29 216.84 38.82Q216.84 37.42 216.41 36.57Q216.06 35.84 215.48 35.41Q215.38 35.34 215.27 35.27Q214.55 34.82 213.64 34.64L213.64 34.52Q214.43 34.38 215 33.96Q215.39 33.67 215.68 33.24Q215.69 33.23 215.7 33.21Q216.39 32.17 216.39 30.67Q216.39 28.95 215.55 27.93Q215.15 27.46 214.57 27.14ZM134 31.34Q134.2 31.99 134.32 32.42L135.62 36.56L130.97 36.56L132.24 32.42Q132.35 32.14 132.53 31.48Q132.72 30.81 132.93 30.08Q133.15 29.34 133.27 28.84Q133.4 29.34 133.59 30.02Q133.79 30.69 134 31.34ZM211.88 32.69Q211.24 33.22 209.6 33.22L207.39 33.22L207.39 29.24L209.39 29.24Q211.02 29.24 211.77 29.69Q212.02 29.84 212.19 30.07Q212.52 30.49 212.52 31.17Q212.52 31.92 212.16 32.4Q212.04 32.56 211.88 32.69ZM190.38 33.03Q190.87 31.02 191.09 29.29L194.72 29.29L194.72 40.84L187.74 40.84Q188.54 39.07 189.21 37.06Q189.89 35.04 190.38 33.03ZM170.53 40.34Q169.55 40.89 167.82 40.89L166.54 40.89L166.54 36.09L167.52 36.09Q169.37 36.09 170.44 36.54Q170.81 36.7 171.05 36.96Q171.52 37.47 171.52 38.42Q171.52 39.36 171.06 39.91Q170.84 40.17 170.53 40.34ZM207.39 40.87L207.39 36.22L209.74 36.22Q211.54 36.22 212.23 36.83Q212.49 37.06 212.65 37.35Q212.92 37.82 212.92 38.44Q212.92 39.25 212.55 39.83Q212.42 40.03 212.24 40.21Q211.57 40.87 209.87 40.87L207.39 40.87Z" fill="#16154F" fill-opacity="1.000000" fill-rule="evenodd"/>
	<path id="оптовая продажа металла" d="M99.68 57.49Q99.35 58.17 99.35 59.03L99.35 59.1Q99.35 60.34 99.95 61.12Q100.02 61.21 100.1 61.29Q100.32 61.53 100.59 61.7Q101.22 62.1 102.11 62.1Q102.99 62.1 103.62 61.7Q103.89 61.53 104.11 61.29Q104.22 61.16 104.32 61.03Q104.86 60.27 104.86 59.14L104.84 58.75Q104.77 57.72 104.25 57.05Q104.14 56.91 104.01 56.79Q103.81 56.59 103.57 56.45Q102.94 56.07 102.09 56.07Q101.32 56.07 100.72 56.4Q100.68 56.42 100.64 56.44Q100.4 56.59 100.2 56.78Q99.89 57.08 99.68 57.49ZM117.58 57.49Q117.25 58.17 117.25 59.03L117.25 59.1Q117.25 60.34 117.85 61.12Q117.92 61.21 118 61.29Q118.22 61.53 118.49 61.7Q119.12 62.1 120.01 62.1Q120.89 62.1 121.52 61.7Q121.79 61.53 122.01 61.29Q122.13 61.16 122.22 61.03Q122.76 60.27 122.76 59.14L122.75 58.75Q122.68 57.72 122.15 57.05Q122.04 56.91 121.92 56.79Q121.71 56.59 121.47 56.45Q120.85 56.07 120 56.07Q119.22 56.07 118.62 56.4Q118.58 56.42 118.54 56.44Q118.3 56.59 118.1 56.78Q117.79 57.08 117.58 57.49ZM133.15 61.47Q133.2 61.78 133.31 61.99L134.87 61.99L134.87 61.9Q134.65 61.48 134.64 60.65L134.64 58.13Q134.64 57.42 134.31 56.94Q134.19 56.76 134.01 56.61Q134 56.6 133.98 56.59Q133.36 56.07 132.31 56.07Q131.6 56.07 131.03 56.32Q130.46 56.56 130.15 56.99Q129.95 57.26 129.88 57.56Q129.84 57.74 129.84 57.93L131.39 57.93Q131.39 57.71 131.49 57.55Q131.53 57.47 131.61 57.41Q131.83 57.22 132.23 57.22Q132.64 57.22 132.85 57.43Q132.86 57.44 132.88 57.46Q132.89 57.48 132.9 57.49Q133.09 57.73 133.09 58.11L133.09 58.44L132.37 58.44Q131.08 58.45 130.39 58.94Q130.12 59.13 129.96 59.39Q129.71 59.8 129.71 60.36Q129.71 60.74 129.85 61.06Q129.99 61.36 130.27 61.6Q130.4 61.72 130.56 61.81Q131.04 62.1 131.68 62.1Q132.22 62.1 132.64 61.87Q132.92 61.72 133.15 61.47ZM155.59 61.29Q156.2 60.48 156.2 59.14L156.2 59.06Q156.2 57.66 155.6 56.87Q155.36 56.55 155.04 56.36Q154.57 56.07 153.93 56.07Q153.44 56.07 153.05 56.27Q152.72 56.44 152.46 56.75L152.41 56.18L150.97 56.18L150.97 64.23L152.52 64.23L152.52 61.49Q152.73 61.73 152.99 61.87Q153.41 62.1 153.94 62.1Q154.49 62.1 154.92 61.87Q155.3 61.67 155.59 61.29ZM157.25 57.49Q156.92 58.17 156.92 59.03L156.92 59.1Q156.92 60.34 157.52 61.12Q157.59 61.21 157.67 61.29Q157.89 61.53 158.16 61.7Q158.79 62.1 159.67 62.1Q160.55 62.1 161.19 61.7Q161.45 61.53 161.68 61.29Q161.79 61.16 161.89 61.03Q162.42 60.27 162.42 59.14L162.41 58.75Q162.34 57.72 161.82 57.05Q161.71 56.91 161.58 56.79Q161.37 56.59 161.13 56.45Q160.51 56.07 159.66 56.07Q158.89 56.07 158.29 56.4Q158.25 56.42 158.21 56.44Q157.97 56.59 157.77 56.78Q157.45 57.08 157.25 57.49ZM173.15 61.47Q173.2 61.78 173.3 61.99L174.87 61.99L174.87 61.9Q174.65 61.48 174.64 60.65L174.64 58.13Q174.64 57.42 174.31 56.94Q174.18 56.76 174.01 56.61Q174 56.6 173.98 56.59Q173.35 56.07 172.31 56.07Q171.6 56.07 171.03 56.32Q170.46 56.56 170.15 56.99Q169.95 57.26 169.88 57.56Q169.83 57.74 169.83 57.93L171.39 57.93Q171.39 57.71 171.48 57.55Q171.53 57.47 171.61 57.41Q171.83 57.22 172.22 57.22Q172.64 57.22 172.84 57.43Q172.86 57.44 172.88 57.46Q172.89 57.48 172.9 57.49Q173.08 57.73 173.08 58.11L173.08 58.44L172.37 58.44Q171.08 58.45 170.39 58.94Q170.12 59.13 169.96 59.39Q169.71 59.8 169.71 60.36Q169.71 60.74 169.85 61.06Q169.99 61.36 170.27 61.6Q170.4 61.72 170.56 61.81Q171.04 62.1 171.68 62.1Q172.22 62.1 172.64 61.87Q172.92 61.72 173.15 61.47ZM188.44 61.47Q188.49 61.78 188.6 61.99L190.16 61.99L190.16 61.9Q189.94 61.48 189.93 60.65L189.93 58.13Q189.93 57.42 189.6 56.94Q189.48 56.76 189.3 56.61Q189.29 56.6 189.27 56.59Q188.65 56.07 187.6 56.07Q186.89 56.07 186.32 56.32Q185.75 56.56 185.44 56.99Q185.24 57.26 185.17 57.56Q185.13 57.74 185.13 57.93L186.68 57.93Q186.68 57.71 186.78 57.55Q186.83 57.47 186.9 57.41Q187.12 57.22 187.52 57.22Q187.93 57.22 188.14 57.43Q188.15 57.44 188.17 57.46Q188.18 57.48 188.19 57.49Q188.38 57.73 188.38 58.11L188.38 58.44L187.66 58.44Q186.37 58.45 185.68 58.94Q185.41 59.13 185.25 59.39Q185 59.8 185 60.36Q185 60.74 185.14 61.06Q185.28 61.36 185.56 61.6Q185.69 61.72 185.85 61.81Q186.33 62.1 186.97 62.1Q187.51 62.1 187.93 61.87Q188.21 61.72 188.44 61.47ZM203.29 61.69Q203.97 62.1 204.89 62.1Q205.62 62.1 206.21 61.82Q206.69 61.6 207.01 61.24Q207.09 61.15 207.16 61.05L206.4 60.2Q206.2 60.45 205.94 60.6Q205.54 60.85 204.99 60.85Q204.57 60.85 204.25 60.66Q204.14 60.59 204.04 60.5Q203.94 60.41 203.86 60.31Q203.64 60.01 203.58 59.59L207.28 59.59L207.28 58.96Q207.28 57.58 206.6 56.82Q206.42 56.63 206.2 56.48Q205.6 56.07 204.72 56.07Q204.07 56.07 203.54 56.32Q203.42 56.38 203.3 56.45Q203.11 56.56 202.94 56.71Q202.58 57.04 202.35 57.51Q202.01 58.2 202.01 59.07L202.01 59.23Q202.01 60.19 202.45 60.88Q202.6 61.11 202.81 61.31Q203.03 61.53 203.29 61.69ZM216.83 61.47Q216.88 61.78 216.99 61.99L218.56 61.99L218.56 61.9Q218.33 61.48 218.33 60.65L218.33 58.13Q218.33 57.42 217.99 56.94Q217.87 56.76 217.69 56.61Q217.68 56.6 217.66 56.59Q217.04 56.07 215.99 56.07Q215.28 56.07 214.71 56.32Q214.14 56.56 213.83 56.99Q213.63 57.26 213.56 57.56Q213.52 57.74 213.52 57.93L215.07 57.93Q215.07 57.71 215.17 57.55Q215.22 57.47 215.29 57.41Q215.52 57.22 215.91 57.22Q216.32 57.22 216.53 57.43Q216.54 57.44 216.56 57.46Q216.57 57.48 216.58 57.49Q216.77 57.73 216.77 58.11L216.77 58.44L216.05 58.44Q214.76 58.45 214.07 58.94Q213.8 59.13 213.64 59.39Q213.39 59.8 213.39 60.36Q213.39 60.74 213.53 61.06Q213.67 61.36 213.95 61.6Q214.09 61.72 214.24 61.81Q214.72 62.1 215.37 62.1Q215.91 62.1 216.33 61.87Q216.61 61.72 216.83 61.47ZM235.23 61.47Q235.28 61.78 235.39 61.99L236.96 61.99L236.96 61.9Q236.73 61.48 236.73 60.65L236.73 58.13Q236.73 57.42 236.39 56.94Q236.27 56.76 236.1 56.61Q236.08 56.6 236.06 56.59Q235.44 56.07 234.39 56.07Q233.68 56.07 233.11 56.32Q232.54 56.56 232.23 56.99Q232.03 57.26 231.96 57.56Q231.92 57.74 231.92 57.93L233.47 57.93Q233.47 57.71 233.57 57.55Q233.62 57.47 233.69 57.41Q233.92 57.22 234.31 57.22Q234.72 57.22 234.93 57.43Q234.95 57.44 234.96 57.46Q234.97 57.48 234.98 57.49Q235.17 57.73 235.17 58.11L235.17 58.44L234.45 58.44Q233.16 58.45 232.48 58.94Q232.21 59.13 232.04 59.39Q231.79 59.8 231.79 60.36Q231.79 60.74 231.94 61.06Q232.08 61.36 232.35 61.6Q232.49 61.72 232.64 61.81Q233.12 62.1 233.77 62.1Q234.31 62.1 234.73 61.87Q235.01 61.72 235.23 61.47ZM109.31 61.99L110.87 61.99L110.87 56.18L105.81 56.18L105.81 61.99L107.36 61.99L107.36 57.44L109.31 57.44L109.31 61.99ZM115.01 57.43L116.88 57.43L116.88 56.18L111.62 56.18L111.62 57.43L113.45 57.43L113.45 61.99L115.01 61.99L115.01 57.43ZM123.82 56.18L123.82 61.99L126.61 61.99Q127.77 61.99 128.38 61.57Q128.63 61.4 128.77 61.17Q128.99 60.82 128.99 60.33Q128.99 60.07 128.89 59.85Q128.81 59.65 128.64 59.48Q128.28 59.13 127.66 59.02Q128.17 58.84 128.43 58.52Q128.58 58.34 128.65 58.13Q128.7 57.98 128.7 57.8Q128.7 57.38 128.52 57.07Q128.36 56.79 128.06 56.6Q127.43 56.18 126.24 56.18L123.82 56.18ZM140.68 61.99L140.68 56.18L138.04 56.18Q136.95 56.2 136.3 56.74Q135.96 57.01 135.8 57.36Q135.64 57.71 135.64 58.12Q135.64 58.46 135.76 58.75Q135.82 58.92 135.92 59.06Q135.94 59.08 135.95 59.1Q136.23 59.49 136.73 59.72L135.46 61.99L137.03 61.99L138.15 59.98L139.13 59.98L139.13 61.99L140.68 61.99ZM148.22 61.99L149.78 61.99L149.78 56.18L144.72 56.18L144.72 61.99L146.28 61.99L146.28 57.44L148.22 57.44L148.22 61.99ZM163.79 59.63Q163.6 60.18 163.07 60.74L162.57 60.74L162.57 63.74L164.16 63.74L164.16 61.99L167.6 61.99L167.6 63.74L169.15 63.74L169.15 60.74L168.31 60.74L168.31 56.18L164.04 56.18L164 58.08Q163.97 59.09 163.79 59.63ZM180.72 59.84L181.43 59.84L182.58 61.99L184.49 61.99L182.64 58.91L184.44 56.18L182.52 56.18L181.3 58.35L180.72 58.35L180.72 56.18L179.17 56.18L179.17 58.35L178.6 58.35L177.39 56.18L175.47 56.18L177.28 58.95L175.45 61.99L177.32 61.99L178.48 59.84L179.17 59.84L179.17 61.99L180.72 61.99L180.72 59.84ZM198.92 56.18L197.4 60.16L195.9 56.18L193.97 56.18L193.97 61.99L195.52 61.99L195.52 58.48L196.88 61.99L197.93 61.99L199.32 58.42L199.32 61.99L200.87 61.99L200.87 56.18L198.92 56.18ZM211.06 57.43L212.93 57.43L212.93 56.18L207.67 56.18L207.67 57.43L209.51 57.43L209.51 61.99L211.06 61.99L211.06 57.43ZM224.57 61.99L224.57 56.18L220.19 56.18L220.09 58.64Q220.04 59.76 219.85 60.22Q219.72 60.52 219.49 60.64Q219.38 60.7 219.23 60.71L219.04 60.73L219.06 61.99L219.58 61.99Q220.22 61.98 220.64 61.68Q220.84 61.53 220.99 61.32Q221.46 60.66 221.55 59.23L221.65 57.44L223.02 57.44L223.02 61.99L224.57 61.99ZM230.82 61.99L230.82 56.18L226.45 56.18L226.34 58.64Q226.29 59.76 226.1 60.22Q225.97 60.52 225.75 60.64Q225.63 60.7 225.48 60.71L225.29 60.73L225.31 61.99L225.83 61.99Q226.47 61.98 226.89 61.68Q227.09 61.53 227.24 61.32Q227.71 60.66 227.81 59.23L227.9 57.44L229.27 57.44L229.27 61.99L230.82 61.99ZM101.21 60.41Q100.9 59.97 100.9 59.14Q100.9 58.22 101.21 57.77Q101.35 57.58 101.54 57.47Q101.78 57.33 102.09 57.33Q102.42 57.33 102.66 57.47Q102.85 57.58 102.99 57.77Q103.3 58.22 103.3 59.03Q103.3 59.98 102.99 60.41Q102.85 60.6 102.66 60.71Q102.42 60.85 102.11 60.85Q101.76 60.85 101.51 60.69Q101.34 60.59 101.21 60.41ZM119.12 60.41Q118.8 59.97 118.8 59.14Q118.8 58.22 119.12 57.77Q119.25 57.58 119.44 57.47Q119.68 57.33 120 57.33Q120.32 57.33 120.56 57.47Q120.75 57.58 120.89 57.77Q121.2 58.22 121.2 59.03Q121.2 59.98 120.89 60.41Q120.75 60.6 120.56 60.71Q120.32 60.85 120.01 60.85Q119.66 60.85 119.42 60.69Q119.24 60.59 119.12 60.41ZM158.78 60.41Q158.47 59.97 158.47 59.14Q158.47 58.22 158.78 57.77Q158.92 57.58 159.11 57.47Q159.34 57.33 159.66 57.33Q159.98 57.33 160.22 57.47Q160.41 57.58 160.55 57.77Q160.87 58.22 160.87 59.03Q160.87 59.98 160.55 60.41Q160.41 60.6 160.23 60.71Q159.99 60.85 159.67 60.85Q159.33 60.85 159.08 60.69Q158.91 60.59 158.78 60.41ZM204.2 57.45Q204.42 57.33 204.71 57.33Q205.14 57.33 205.39 57.54Q205.44 57.57 205.48 57.61Q205.48 57.62 205.49 57.63Q205.75 57.91 205.76 58.41L205.76 58.53L203.6 58.53Q203.68 57.95 203.97 57.64Q204.07 57.53 204.2 57.45ZM154.36 57.77Q154.64 58.22 154.64 59.03Q154.64 60.35 154.06 60.71Q153.84 60.85 153.53 60.85Q153.08 60.85 152.8 60.63Q152.63 60.49 152.52 60.27L152.52 57.89Q152.62 57.69 152.77 57.56Q153.05 57.33 153.52 57.33Q153.82 57.33 154.04 57.47Q154.23 57.57 154.36 57.77ZM126.33 58.54L125.37 58.54L125.37 57.43L126.24 57.43Q126.7 57.43 126.92 57.56Q126.99 57.6 127.04 57.66Q127.15 57.79 127.15 58.01Q127.15 58.16 127.08 58.26Q126.91 58.53 126.33 58.54ZM139.13 58.9L138.07 58.9Q137.74 58.89 137.51 58.74Q137.47 58.71 137.44 58.69Q137.31 58.58 137.25 58.44Q137.19 58.32 137.19 58.17Q137.19 58.05 137.23 57.94Q137.29 57.78 137.45 57.64Q137.48 57.62 137.5 57.6Q137.75 57.43 138.12 57.43L139.13 57.43L139.13 58.9ZM166.77 60.74L164.9 60.74Q165.5 59.76 165.55 58.16L165.56 57.46L166.77 57.46L166.77 60.74ZM132.48 60.84Q132.26 60.91 132.02 60.91Q131.7 60.91 131.5 60.75Q131.48 60.74 131.46 60.72Q131.38 60.64 131.33 60.54Q131.26 60.41 131.26 60.25L131.27 60.15Q131.29 59.91 131.42 59.73Q131.7 59.35 132.5 59.35L133.09 59.35L133.09 60.35Q133.06 60.39 133.03 60.44Q132.89 60.63 132.66 60.76Q132.57 60.8 132.48 60.84ZM172.48 60.84Q172.26 60.91 172.02 60.91Q171.69 60.91 171.5 60.75Q171.48 60.74 171.46 60.72Q171.37 60.64 171.32 60.54Q171.26 60.41 171.26 60.25L171.26 60.15Q171.29 59.91 171.41 59.73Q171.7 59.35 172.5 59.35L173.08 59.35L173.08 60.35Q173.06 60.39 173.03 60.44Q172.89 60.63 172.65 60.76Q172.57 60.8 172.48 60.84ZM187.77 60.84Q187.55 60.91 187.31 60.91Q186.99 60.91 186.79 60.75Q186.77 60.74 186.75 60.72Q186.67 60.64 186.62 60.54Q186.55 60.41 186.55 60.25L186.56 60.15Q186.58 59.91 186.71 59.73Q186.99 59.35 187.8 59.35L188.38 59.35L188.38 60.35Q188.35 60.39 188.32 60.44Q188.18 60.63 187.95 60.76Q187.86 60.8 187.77 60.84ZM216.16 60.84Q215.95 60.91 215.7 60.91Q215.38 60.91 215.18 60.75Q215.16 60.74 215.15 60.72Q215.06 60.64 215.01 60.54Q214.94 60.41 214.94 60.25L214.95 60.15Q214.97 59.91 215.1 59.73Q215.38 59.35 216.19 59.35L216.77 59.35L216.77 60.35Q216.74 60.39 216.71 60.44Q216.58 60.63 216.34 60.76Q216.25 60.8 216.16 60.84ZM234.56 60.84Q234.35 60.91 234.11 60.91Q233.78 60.91 233.58 60.75Q233.56 60.74 233.55 60.72Q233.46 60.64 233.41 60.54Q233.34 60.41 233.34 60.25L233.35 60.15Q233.37 59.91 233.5 59.73Q233.78 59.35 234.59 59.35L235.17 59.35L235.17 60.35Q235.14 60.39 235.11 60.44Q234.98 60.63 234.74 60.76Q234.65 60.8 234.56 60.84ZM125.37 60.75L125.37 59.58L126.66 59.58Q127.16 59.59 127.34 59.83Q127.44 59.97 127.44 60.18Q127.44 60.36 127.35 60.49Q127.17 60.75 126.62 60.75L125.37 60.75Z" fill="#16154F" fill-opacity="1.000000" fill-rule="evenodd"/>
</svg>
