<svg width="20.000000" height="20.036465" viewBox="0 0 20 20.0365" fill="none" xmlns="http://www.w3.org/2000/svg" xmlns:xlink="http://www.w3.org/1999/xlink">
	<path id="Vector" d="M12.85 15.15C12.41 15.15 11.66 14.49 11.32 14.22L9.93 13.19L9.51 13.56C9.38 13.69 9.26 13.81 9.13 13.94C8.91 14.16 8.62 14.56 8.22 14.6C8.22 14.42 8.25 14.43 8.25 14.29C8.27 13.98 8.25 13.72 8.31 13.25C8.33 13.12 8.33 13.05 8.33 12.92C8.33 12.72 8.36 12.74 8.36 12.57C8.4 11.86 8.31 12.19 8.69 11.81L9.66 10.92C9.75 10.84 9.77 10.84 9.86 10.75L12.96 7.94C13.07 7.85 13.09 7.87 13.09 7.69C12.67 7.69 12.63 7.82 12.25 8.05L7.76 10.88C6.74 11.52 7.2 11.43 6.25 11.13C5.99 11.06 5.76 10.99 5.5 10.9C5.03 10.73 4.15 10.59 4.15 10.26C4.15 10 4.41 9.89 4.64 9.82L10.97 7.38C11.44 7.2 11.88 7.01 12.37 6.83C12.74 6.7 14.27 6.05 14.51 6.05C15.27 6.05 14.89 7.2 14.76 7.74L13.36 14.31C13.3 14.62 13.23 15.13 12.85 15.13L12.85 15.15ZM0.03 9.71L0.03 9.79L0.03 9.86L0.03 9.93L0.03 10L0.03 10.06L0.03 10.13C0.07 11.39 0.16 12.17 0.6 13.41C0.83 14.09 1.03 14.47 1.36 15.07C2.29 16.8 4.01 18.24 5.76 19.1C6.65 19.54 8.18 20.01 9.53 20.03L9.6 20.03L9.66 20.03L9.77 20.03L9.86 20.03L9.97 20.03L10.06 20.03L10.15 20.03L10.24 20.03C11.03 20.01 11.54 19.96 12.45 19.74C12.79 19.65 13.07 19.58 13.38 19.45C15.35 18.76 16.95 17.46 18.17 15.8C19.21 14.4 19.96 12.32 20 10.53L20 10.44L20 10.35L20 10.28L20 10.2L20 10.13L20 10.06L20 10L20 9.93C19.96 8.65 19.87 7.87 19.43 6.61C19.34 6.34 19.21 6.01 19.08 5.76C18.79 5.19 18.55 4.72 18.19 4.22C17.84 3.75 17.5 3.31 17.08 2.91C15.4 1.23 12.88 0.03 10.46 0L10.35 0L10.28 0L10.2 0L10.13 0L10.06 0L10 0L9.93 0C8.65 0.03 7.87 0.12 6.61 0.56C5.81 0.83 4.9 1.31 4.22 1.8C3.75 2.15 3.31 2.49 2.91 2.91C1.22 4.61 0.03 7.12 0 9.57L0 9.68L0.03 9.71Z" fill="#000000" fill-opacity="1.000000" fill-rule="evenodd"/>
</svg>
