<svg width="19.000000" height="13.256348" viewBox="0 0 19 13.2563" fill="none" xmlns="http://www.w3.org/2000/svg" xmlns:xlink="http://www.w3.org/1999/xlink">
	<path id="Vector" d="M6.53 10.79L16.97 0.34L17.06 0.27L17.15 0.2C17.18 0.18 17.22 0.15 17.25 0.14L17.36 0.09L17.47 0.05L17.58 0.02L17.69 0L17.81 0L17.92 0L18.04 0.02L18.15 0.05L18.26 0.09L18.37 0.14L18.47 0.19C18.5 0.21 18.53 0.24 18.56 0.26C18.59 0.29 18.62 0.31 18.65 0.34L18.73 0.43L18.8 0.52L18.85 0.62C18.87 0.65 18.89 0.69 18.9 0.73C18.92 0.76 18.93 0.8 18.94 0.84C18.95 0.87 18.96 0.91 18.97 0.95L18.99 1.06L19 1.18L18.99 1.29L18.97 1.41L18.94 1.52C18.93 1.56 18.92 1.59 18.9 1.63L18.85 1.74L18.79 1.84L18.72 1.93L18.65 2.02L8.2 12.46C8.07 12.59 7.94 12.7 7.79 12.8C7.64 12.89 7.49 12.98 7.32 13.05C7.16 13.11 6.99 13.16 6.82 13.2C6.64 13.23 6.47 13.25 6.29 13.25C6.12 13.25 5.94 13.23 5.77 13.2C5.6 13.16 5.43 13.11 5.26 13.05C5.1 12.98 4.94 12.89 4.79 12.8C4.65 12.7 4.51 12.59 4.38 12.46L0.34 8.42C0.32 8.39 0.29 8.37 0.27 8.34L0.2 8.24C0.18 8.21 0.16 8.18 0.14 8.14L0.09 8.04C0.07 8 0.06 7.97 0.05 7.92L0.02 7.81L0 7.7L0 7.58L0 7.47L0.02 7.35L0.05 7.24L0.09 7.13C0.1 7.1 0.12 7.06 0.14 7.02C0.15 6.99 0.17 6.96 0.2 6.92C0.22 6.89 0.24 6.86 0.27 6.83L0.34 6.74L0.43 6.67C0.45 6.64 0.49 6.62 0.52 6.6C0.55 6.58 0.59 6.56 0.62 6.54L0.73 6.49L0.84 6.45C0.87 6.44 0.91 6.43 0.95 6.42L1.07 6.4L1.18 6.4L1.29 6.4L1.41 6.42C1.45 6.43 1.49 6.44 1.52 6.45C1.61 6.48 1.66 6.5 1.74 6.54L1.84 6.59L1.93 6.66L2.02 6.74C2.57 7.3 5.85 10.81 6.26 10.88L6.33 10.88C6.41 10.87 6.46 10.85 6.52 10.79L6.53 10.79Z" fill="#0D64C9" fill-opacity="1.000000" fill-rule="evenodd"/>
</svg>
