<svg class="index-article__icon" alt="box" width="46.000000" height="37.000000" viewBox="0 0 46 37" fill="none" xmlns="http://www.w3.org/2000/svg" xmlns:xlink="http://www.w3.org/1999/xlink">
	<desc>
			Created with Pixso.
	</desc>
	<defs/>
	<path id="Vector" d="M0 12.62C0 14.34 1.23 14.47 2.47 14.47L10.6 14.47C11.24 14.47 12.02 14.39 12.48 14.62C13.54 15.14 13.7 17.44 11.82 17.64C10.56 17.77 6.74 17.51 5.93 17.67C4.11 18.03 4.18 20.86 6.1 21.08L12.81 21.09C14.15 21.08 14.75 21.39 14.75 22.86C14.75 24.39 13.26 24.27 11.75 24.27L2.91 24.27C2.18 24.27 1.35 24.18 0.88 24.45C0.35 24.75 0.05 25.27 0 25.82L0 26.17C0.05 26.72 0.37 27.26 0.96 27.54C1.66 27.87 6.94 27.71 7.95 27.71C9.51 27.71 11.07 27.72 12.63 27.71C13.52 27.7 13.49 27.76 14.41 28.31L27.58 35.91C27.72 35.97 27.83 36.09 27.83 35.74L27.83 19.5C27.83 19.14 26.43 18.5 26.16 18.34L13.42 11.03L1.59 11.03C0.76 11.03 0 11.79 0 12.62Z" fill="#FEFEFE" fill-opacity="1.000000" fill-rule="evenodd"/>
	<path id="Vector" d="M18.11 1.58C18.11 4.8 22.17 2.55 22.17 3.88C22.17 4.2 20.95 4.76 20.44 5.06C19.78 5.46 19.18 5.77 18.53 6.16C17.88 6.54 17.29 6.87 16.63 7.26C16.3 7.46 14.94 8.09 14.84 8.47C15.34 8.59 19.54 11.14 20.26 11.53C21.27 12.08 28.98 16.67 29.32 16.65L34.71 13.58C35.66 13.04 43.47 8.64 43.73 8.29C43.09 7.96 42.56 7.64 41.92 7.27L29.24 0L19.79 0C18.94 0 18.11 0.74 18.11 1.58Z" fill="#FEFEFE" fill-opacity="1.000000" fill-rule="evenodd"/>
	<path id="Vector" d="M30.74 19.24L30.74 36.01C31.3 35.71 31.78 35.43 32.33 35.12L44.86 27.87C45.09 27.68 45.19 27.41 45.23 27.1L45.23 25.77L45.23 10.94C43.22 12 40.08 13.89 37.99 15.09L32.61 18.19C32.29 18.39 32.03 18.53 31.72 18.71C31.48 18.85 31.01 19.16 30.74 19.24Z" fill="#FEFEFE" fill-opacity="1.000000" fill-rule="evenodd"/>
	<path id="Vector" d="M1.85 1.5C1.85 2.62 2.44 3.44 3.44 3.44L14.22 3.44C15.3 3.44 16.37 1.65 15.21 0.5C14.96 0.25 14.52 0 14.04 0L3.53 0C2.58 0 1.85 0.89 1.85 1.5Z" fill="#FEFEFE" fill-opacity="1.000000" fill-rule="evenodd"/>
</svg>
