<svg width="31.000000" height="31.000000" viewBox="0 0 31 31" fill="none" xmlns="http://www.w3.org/2000/svg" xmlns:xlink="http://www.w3.org/1999/xlink">
	<path id="Vector" d="M0 2.13C0.03 2.37 0.11 2.57 0.27 2.69C0.43 2.81 0.65 2.84 0.9 2.84C1.42 2.85 1.96 2.84 2.48 2.84L5.71 13.53C5.83 13.95 5.96 14.31 6.08 14.73C6.2 15.15 6.3 15.48 6.44 15.9L6.81 17.11C6.86 17.39 6.55 17.67 6.25 17.99C5.56 18.71 4.48 19.96 4.48 20.94C4.48 21.58 4.47 21.82 4.76 22.41C4.93 22.76 5.11 22.94 5.37 23.2C5.82 23.66 6.49 23.97 7.38 23.97L27.36 23.97C28.39 23.97 28.21 22.95 28.21 21.97C28.21 20.87 27.11 21.13 26.39 21.13L7.32 21.13L9.08 19.07C9.23 18.87 9.55 18.59 9.62 18.34L22.4 18.34C23.64 18.34 24.75 18.32 25.56 17.21C25.9 16.75 26.03 16.34 26.29 15.82C27.08 14.25 27.89 12.31 28.67 10.75L30.41 7.1C30.97 5.79 31 6.14 31 4.84C31 4.08 30.25 3.18 29.46 2.92C29.17 2.82 28.76 2.78 28.39 2.78L5.75 2.78C5.58 2.78 5.58 2.81 5.44 2.84C5.32 2.3 4.86 0.69 4.49 0.35C4.31 0.19 3.95 0 3.63 0L0.66 0C0.31 0 0 0.31 0 0.66L0 2.13Z" fill="#FFFFFF" fill-opacity="1.000000" fill-rule="evenodd"/>
	<path id="Vector" d="M22.52 28.15C22.52 28.96 22.88 29.68 23.29 30.1C23.81 30.65 24.54 30.96 25.27 31L25.58 31C26.11 30.97 26.61 30.79 27.01 30.47C27.16 30.35 27.25 30.29 27.38 30.16C27.55 30 27.82 29.6 27.92 29.38C28.56 28.04 27.99 26.35 26.72 25.71C25.15 24.91 23.48 25.52 22.78 27.02C22.65 27.29 22.52 27.78 22.52 28.15Z" fill="#FFFFFF" fill-opacity="1.000000" fill-rule="evenodd"/>
	<path id="Vector" d="M5.63 28.03C5.63 29.93 6.97 30.92 8.32 31L8.64 31C9.14 30.97 9.64 30.81 10.05 30.51C10.66 30.06 11.26 29.23 11.26 28.51C11.26 27.84 11.25 27.16 10.76 26.53C9.39 24.79 7.02 24.98 5.89 26.96C5.78 27.17 5.63 27.73 5.63 28.03Z" fill="#FFFFFF" fill-opacity="1.000000" fill-rule="evenodd"/>
</svg>
