<svg width="43.000000" height="82.000000" viewBox="0 0 43 82" fill="none" xmlns="http://www.w3.org/2000/svg" xmlns:xlink="http://www.w3.org/1999/xlink">
	<desc>
			Created with Pixso.
	</desc>
	<defs>
		<radialGradient gradientTransform="translate(44.2456 45.0959) rotate(-138.742) scale(68.3837 65.1569)" cx="0.000000" cy="0.000000" r="1.000000" id="paint_radial_56_30_0" gradientUnits="userSpaceOnUse">
			<stop offset="0.269236" stop-color="#FEFEFE"/>
			<stop offset="0.861985" stop-color="#1A1B21"/>
		</radialGradient>
	</defs>
	<path id="Vector" d="M42.54 0L42.54 27.24L40.19 27.24L40.19 0L42.54 0ZM40.2 82L39.69 54.76L42.03 54.72L42.54 81.96L40.2 82ZM32.62 81.15L37.16 54.29L39.47 54.67L34.94 81.54L32.62 81.15ZM25.33 78.92L34.76 53.35L36.96 54.16L27.54 79.72L25.33 78.92ZM18.59 75.37L32.58 51.99L34.59 53.19L20.6 76.57L18.59 75.37ZM12.61 70.65L30.69 50.25L32.44 51.8L14.36 72.2L12.61 70.65ZM7.61 64.9L29.15 48.19L30.58 50.04L9.04 66.75L7.61 64.9ZM3.76 58.33L28.02 45.89L29.09 47.96L4.82 60.4L3.76 58.33ZM1.19 51.15L27.34 43.41L28 45.65L1.85 53.4L1.19 51.15ZM0 43.63L27.13 40.85L27.36 43.17L0.23 45.96L0 43.63ZM0.21 36.02L27.39 38.29L27.2 40.63L0.02 38.35L0.21 36.02ZM1.83 28.58L28.12 35.83L27.5 38.08L1.21 30.83L1.83 28.58ZM4.8 21.57L29.3 33.55L28.27 35.64L3.77 23.67L4.8 21.57ZM9.02 15.22L30.88 31.52L29.47 33.39L7.62 17.1L9.02 15.22ZM14.34 9.77L32.8 29.81L31.08 31.4L12.62 11.35L14.34 9.77ZM20.58 5.39L35.01 28.5L33.02 29.73L18.59 6.62L20.58 5.39ZM27.52 2.23L37.43 27.61L35.24 28.46L25.33 3.08L27.52 2.23ZM34.92 0.42L39.96 27.19L37.66 27.62L32.62 0.85L34.92 0.42Z" fill="url(#paint_radial_56_30_0)" fill-opacity="1.000000" fill-rule="evenodd"/>
</svg>
