<svg width="256.000000" height="82.000000" viewBox="0 0 256 82" fill="none" xmlns="http://www.w3.org/2000/svg" xmlns:xlink="http://www.w3.org/1999/xlink">
	<desc>
			Created with Pixso.
	</desc>
	<defs>
		<linearGradient x1="32.502274" y1="40.765537" x2="68.860748" y2="40.765537" id="paint_linear_65_65_0" gradientUnits="userSpaceOnUse">
			<stop offset="0.212121" stop-color="#060606"/>
			<stop offset="1.000000" stop-color="#FFFFFF"/>
		</linearGradient>
		<radialGradient gradientTransform="translate(44.2456 45.0959) rotate(-138.742) scale(68.3837 65.1569)" cx="0.000000" cy="0.000000" r="1.000000" id="paint_radial_65_66_0" gradientUnits="userSpaceOnUse">
			<stop offset="0.269236" stop-color="#FEFEFE"/>
			<stop offset="0.861985" stop-color="#1A1B21"/>
		</radialGradient>
	</defs>
	<path id="Vector" d="M43.2 8.5C58.32 8.5 71.03 18.83 74.65 32.82L61.58 32.82C58.45 25.79 51.4 20.88 43.2 20.88L43.2 8.5ZM43.2 61.11C51.82 61.11 59.18 55.68 62.03 48.05L74.92 48.05C71.69 62.6 58.72 73.49 43.2 73.49L43.2 61.11Z" fill="url(#paint_linear_65_65_0)" fill-opacity="1.000000" fill-rule="evenodd"/>
	<path id="Vector" d="M42.54 0L42.54 27.24L40.19 27.24L40.19 0L42.54 0ZM40.2 82L39.69 54.76L42.03 54.72L42.54 81.96L40.2 82ZM32.62 81.15L37.16 54.29L39.47 54.67L34.94 81.54L32.62 81.15ZM25.33 78.92L34.76 53.35L36.96 54.16L27.54 79.72L25.33 78.92ZM18.59 75.37L32.58 51.99L34.59 53.19L20.6 76.57L18.59 75.37ZM12.61 70.65L30.69 50.25L32.44 51.8L14.36 72.2L12.61 70.65ZM7.61 64.9L29.15 48.19L30.58 50.04L9.04 66.75L7.61 64.9ZM3.76 58.33L28.02 45.89L29.09 47.96L4.82 60.4L3.76 58.33ZM1.19 51.15L27.34 43.41L28 45.65L1.85 53.4L1.19 51.15ZM0 43.63L27.13 40.85L27.36 43.17L0.23 45.96L0 43.63ZM0.21 36.02L27.39 38.29L27.2 40.63L0.02 38.35L0.21 36.02ZM1.83 28.58L28.12 35.83L27.5 38.08L1.21 30.83L1.83 28.58ZM4.8 21.57L29.3 33.55L28.27 35.64L3.77 23.67L4.8 21.57ZM9.02 15.22L30.88 31.51L29.47 33.39L7.62 17.1L9.02 15.22ZM14.34 9.77L32.8 29.81L31.08 31.4L12.62 11.35L14.34 9.77ZM20.58 5.39L35.01 28.5L33.02 29.73L18.59 6.62L20.58 5.39ZM27.52 2.23L37.43 27.61L35.24 28.46L25.33 3.08L27.52 2.23ZM34.92 0.42L39.96 27.19L37.66 27.62L32.62 0.85L34.92 0.42Z" fill="url(#paint_radial_65_66_0)" fill-opacity="1.000000" fill-rule="evenodd"/>
	<path id="СТАЛЬ ДВ" d="M107.56 28.65Q108.5 28.05 109.82 28.05Q110.79 28.05 111.81 28.4Q112.82 28.74 113.82 29.22L115.05 26.14Q115.01 26.13 114.98 26.11Q113.79 25.56 112.48 25.23Q111.15 24.9 109.82 24.9Q107.12 24.9 105.26 26.08Q104.57 26.51 104.01 27.06Q103.04 28.01 102.42 29.32Q101.45 31.39 101.45 34.1Q101.45 36.84 102.3 38.91Q102.84 40.22 103.76 41.16Q104.28 41.7 104.93 42.11Q106.72 43.25 109.47 43.25Q110.9 43.25 112.04 43.02Q113.2 42.79 114.37 42.32L114.37 39.14Q113.09 39.6 112.01 39.85Q111.15 40.04 110.29 40.08Q110.06 40.1 109.82 40.1Q108.09 40.1 107.05 39.24Q106.69 38.94 106.41 38.53Q105.35 36.97 105.35 34.12Q105.35 31.29 106.5 29.67Q106.95 29.03 107.56 28.65ZM140.52 38.75L141.82 43L145.89 43L139.57 25.07L134.94 25.07L128.64 43L132.72 43L134.02 38.75L140.52 38.75ZM121.27 43L125.05 43L125.05 28.3L129.9 28.3L129.9 25.14L116.42 25.14L116.42 28.3L121.27 28.3L121.27 43ZM158.49 43L162.27 43L162.27 25.14L151 25.14Q150.69 27.72 150.36 30.01Q150.02 32.3 149.75 34Q149.47 35.7 149.32 36.49Q148.92 38.59 148.53 39.36Q148.28 39.85 147.89 40.02Q147.68 40.12 147.42 40.12Q147.04 40.12 146.73 40.05Q146.42 39.97 146.1 39.87L146.1 42.97Q146.92 43.25 147.9 43.25Q149.39 43.25 150.33 42.67Q150.5 42.57 150.65 42.45Q151.37 41.9 151.81 41Q152.35 39.89 152.67 38.34Q152.87 37.39 153.07 36.16Q153.27 34.92 153.46 33.53Q153.65 32.14 153.81 30.79Q153.97 29.45 154.12 28.3L158.49 28.3L158.49 43ZM166.77 25.14L166.77 43L171.97 43Q175.82 43 177.58 41.54Q178.12 41.09 178.49 40.53Q179.35 39.26 179.35 37.42Q179.35 36.23 178.9 35.23Q178.76 34.92 178.57 34.62L178.57 34.61Q177.79 33.39 176.18 32.7Q174.57 32 172.05 32L170.54 32L170.54 25.14L166.77 25.14ZM202.49 39.85L202.49 25.14L192.09 25.14Q191.69 28.44 191.03 31.07Q190.37 33.69 189.54 35.84Q188.72 37.97 187.77 39.85L186.39 39.85L186.39 48.2L190.04 48.2L190.04 43L201.22 43L201.22 48.2L204.87 48.2L204.87 39.85L202.49 39.85ZM218.57 26.14Q216.74 25.14 213.17 25.14L207.62 25.14L207.62 43L214.29 43Q217.34 43 219.09 41.62Q219.77 41.08 220.19 40.38Q220.84 39.29 220.84 37.82Q220.84 36.42 220.41 35.57Q220.06 34.85 219.48 34.42Q219.38 34.34 219.27 34.27Q218.55 33.82 217.64 33.64L217.64 33.52Q218.43 33.39 219 32.97Q219.39 32.68 219.68 32.25Q219.69 32.23 219.7 32.22Q220.39 31.18 220.39 29.67Q220.39 27.95 219.55 26.94Q219.15 26.46 218.57 26.14ZM138 30.35Q138.2 31 138.32 31.42L139.62 35.57L134.97 35.57L136.24 31.42Q136.35 31.14 136.53 30.48Q136.72 29.82 136.93 29.09Q137.15 28.35 137.27 27.85Q137.4 28.35 137.59 29.02Q137.79 29.7 138 30.35ZM215.88 31.7Q215.24 32.22 213.6 32.22L211.39 32.22L211.39 28.24L213.39 28.24Q215.02 28.24 215.77 28.69Q216.02 28.85 216.19 29.07Q216.52 29.5 216.52 30.17Q216.52 30.92 216.16 31.4Q216.04 31.56 215.88 31.7ZM194.38 32.03Q194.87 30.02 195.09 28.3L198.72 28.3L198.72 39.85L191.74 39.85Q192.54 38.07 193.21 36.06Q193.89 34.05 194.38 32.03ZM174.53 39.35Q173.55 39.89 171.82 39.89L170.54 39.89L170.54 35.1L171.52 35.1Q173.37 35.1 174.44 35.55Q174.81 35.7 175.05 35.96Q175.52 36.48 175.52 37.42Q175.52 38.36 175.06 38.91Q174.84 39.17 174.53 39.35ZM211.39 39.87L211.39 35.22L213.74 35.22Q215.54 35.22 216.23 35.84Q216.49 36.07 216.65 36.35Q216.92 36.82 216.92 37.45Q216.92 38.26 216.55 38.83Q216.42 39.04 216.24 39.21Q215.57 39.87 213.87 39.87L211.39 39.87Z" fill="#FFFFFF" fill-opacity="1.000000" fill-rule="evenodd"/>
	<path id="оптовая продажа металла" d="M100.68 55.49Q100.35 56.17 100.35 57.04L100.35 57.11Q100.35 58.35 100.95 59.12Q101.02 59.21 101.1 59.3Q101.32 59.54 101.59 59.7Q102.22 60.1 103.11 60.1Q103.99 60.1 104.62 59.7Q104.89 59.54 105.11 59.29Q105.22 59.17 105.32 59.03Q105.86 58.28 105.86 57.15L105.84 56.75Q105.77 55.72 105.25 55.05Q105.14 54.92 105.01 54.8Q104.81 54.6 104.57 54.45Q103.94 54.08 103.09 54.08Q102.32 54.08 101.72 54.4Q101.68 54.42 101.64 54.45Q101.4 54.59 101.2 54.78Q100.89 55.08 100.68 55.49ZM118.58 55.49Q118.25 56.17 118.25 57.04L118.25 57.11Q118.25 58.35 118.85 59.12Q118.92 59.21 119 59.3Q119.22 59.54 119.49 59.7Q120.12 60.1 121.01 60.1Q121.89 60.1 122.52 59.7Q122.79 59.54 123.01 59.29Q123.13 59.17 123.22 59.03Q123.76 58.28 123.76 57.15L123.75 56.75Q123.68 55.72 123.15 55.05Q123.04 54.92 122.92 54.8Q122.71 54.6 122.47 54.45Q121.85 54.08 121 54.08Q120.22 54.08 119.62 54.4Q119.58 54.42 119.54 54.45Q119.3 54.59 119.1 54.78Q118.79 55.08 118.58 55.49ZM134.15 59.47Q134.2 59.79 134.31 60L135.87 60L135.87 59.9Q135.65 59.48 135.64 58.65L135.64 56.13Q135.64 55.42 135.31 54.95Q135.19 54.76 135.01 54.62Q135 54.6 134.98 54.59Q134.36 54.08 133.31 54.08Q132.6 54.08 132.03 54.32Q131.46 54.56 131.15 54.99Q130.95 55.27 130.88 55.57Q130.84 55.74 130.84 55.93L132.39 55.93Q132.39 55.71 132.49 55.56Q132.53 55.48 132.61 55.41Q132.83 55.23 133.23 55.23Q133.64 55.23 133.85 55.43Q133.86 55.45 133.88 55.47Q133.89 55.48 133.9 55.49Q134.09 55.73 134.09 56.11L134.09 56.44L133.37 56.44Q132.08 56.45 131.39 56.94Q131.12 57.14 130.96 57.4Q130.71 57.8 130.71 58.36Q130.71 58.74 130.85 59.06Q130.99 59.37 131.27 59.61Q131.4 59.73 131.56 59.82Q132.04 60.1 132.68 60.1Q133.22 60.1 133.64 59.88Q133.92 59.73 134.15 59.47ZM156.59 59.29Q157.2 58.49 157.2 57.14L157.2 57.06Q157.2 55.67 156.6 54.87Q156.36 54.55 156.04 54.36Q155.57 54.08 154.93 54.08Q154.44 54.08 154.05 54.27Q153.72 54.44 153.46 54.75L153.41 54.18L151.97 54.18L151.97 62.23L153.52 62.23L153.52 59.49Q153.73 59.73 153.99 59.88Q154.41 60.1 154.94 60.1Q155.49 60.1 155.92 59.88Q156.3 59.67 156.59 59.29ZM158.25 55.49Q157.92 56.17 157.92 57.04L157.92 57.11Q157.92 58.35 158.52 59.12Q158.59 59.21 158.67 59.3Q158.89 59.54 159.16 59.7Q159.79 60.1 160.67 60.1Q161.55 60.1 162.19 59.7Q162.45 59.54 162.68 59.29Q162.79 59.17 162.89 59.03Q163.42 58.28 163.42 57.15L163.41 56.75Q163.34 55.72 162.82 55.05Q162.71 54.92 162.58 54.8Q162.37 54.6 162.13 54.45Q161.51 54.08 160.66 54.08Q159.89 54.08 159.29 54.4Q159.25 54.42 159.21 54.45Q158.97 54.59 158.77 54.78Q158.45 55.08 158.25 55.49ZM174.15 59.47Q174.2 59.79 174.3 60L175.87 60L175.87 59.9Q175.65 59.48 175.64 58.65L175.64 56.13Q175.64 55.42 175.31 54.95Q175.18 54.76 175.01 54.62Q175 54.6 174.98 54.59Q174.35 54.08 173.31 54.08Q172.6 54.08 172.03 54.32Q171.46 54.56 171.15 54.99Q170.95 55.27 170.88 55.57Q170.83 55.74 170.83 55.93L172.39 55.93Q172.39 55.71 172.48 55.56Q172.53 55.48 172.61 55.41Q172.83 55.23 173.22 55.23Q173.64 55.23 173.84 55.43Q173.86 55.45 173.88 55.47Q173.89 55.48 173.9 55.49Q174.08 55.73 174.08 56.11L174.08 56.44L173.37 56.44Q172.08 56.45 171.39 56.94Q171.12 57.14 170.96 57.4Q170.71 57.8 170.71 58.36Q170.71 58.74 170.85 59.06Q170.99 59.37 171.27 59.61Q171.4 59.73 171.56 59.82Q172.04 60.1 172.68 60.1Q173.22 60.1 173.64 59.88Q173.92 59.73 174.15 59.47ZM189.44 59.47Q189.49 59.79 189.6 60L191.16 60L191.16 59.9Q190.94 59.48 190.93 58.65L190.93 56.13Q190.93 55.42 190.6 54.95Q190.48 54.76 190.3 54.62Q190.29 54.6 190.27 54.59Q189.65 54.08 188.6 54.08Q187.89 54.08 187.32 54.32Q186.75 54.56 186.44 54.99Q186.24 55.27 186.17 55.57Q186.13 55.74 186.13 55.93L187.68 55.93Q187.68 55.71 187.78 55.56Q187.83 55.48 187.9 55.41Q188.12 55.23 188.52 55.23Q188.93 55.23 189.14 55.43Q189.15 55.45 189.17 55.47Q189.18 55.48 189.19 55.49Q189.38 55.73 189.38 56.11L189.38 56.44L188.66 56.44Q187.37 56.45 186.68 56.94Q186.41 57.14 186.25 57.4Q186 57.8 186 58.36Q186 58.74 186.14 59.06Q186.28 59.37 186.56 59.61Q186.69 59.73 186.85 59.82Q187.33 60.1 187.97 60.1Q188.51 60.1 188.93 59.88Q189.21 59.73 189.44 59.47ZM204.29 59.69Q204.97 60.1 205.89 60.1Q206.62 60.1 207.21 59.83Q207.69 59.6 208.01 59.24Q208.09 59.15 208.16 59.06L207.4 58.2Q207.2 58.45 206.94 58.61Q206.54 58.85 205.99 58.85Q205.57 58.85 205.25 58.66Q205.14 58.6 205.04 58.51Q204.94 58.42 204.86 58.31Q204.64 58.01 204.58 57.59L208.28 57.59L208.28 56.96Q208.28 55.58 207.6 54.83Q207.42 54.63 207.2 54.48Q206.6 54.08 205.72 54.08Q205.07 54.08 204.54 54.33Q204.42 54.38 204.3 54.45Q204.11 54.57 203.94 54.72Q203.58 55.04 203.35 55.51Q203.01 56.2 203.01 57.08L203.01 57.23Q203.01 58.2 203.45 58.88Q203.6 59.12 203.81 59.32Q204.03 59.54 204.29 59.69ZM217.83 59.47Q217.88 59.79 217.99 60L219.56 60L219.56 59.9Q219.33 59.48 219.33 58.65L219.33 56.13Q219.33 55.42 218.99 54.95Q218.87 54.76 218.69 54.62Q218.68 54.6 218.66 54.59Q218.04 54.08 216.99 54.08Q216.28 54.08 215.71 54.32Q215.14 54.56 214.83 54.99Q214.63 55.27 214.56 55.57Q214.52 55.74 214.52 55.93L216.07 55.93Q216.07 55.71 216.17 55.56Q216.22 55.48 216.29 55.41Q216.52 55.23 216.91 55.23Q217.32 55.23 217.53 55.43Q217.54 55.45 217.56 55.47Q217.57 55.48 217.58 55.49Q217.77 55.73 217.77 56.11L217.77 56.44L217.05 56.44Q215.76 56.45 215.07 56.94Q214.8 57.14 214.64 57.4Q214.39 57.8 214.39 58.36Q214.39 58.74 214.53 59.06Q214.67 59.37 214.95 59.61Q215.09 59.73 215.24 59.82Q215.72 60.1 216.37 60.1Q216.91 60.1 217.33 59.88Q217.61 59.73 217.83 59.47ZM236.23 59.47Q236.28 59.79 236.39 60L237.96 60L237.96 59.9Q237.73 59.48 237.73 58.65L237.73 56.13Q237.73 55.42 237.39 54.95Q237.27 54.76 237.1 54.62Q237.08 54.6 237.06 54.59Q236.44 54.08 235.39 54.08Q234.68 54.08 234.11 54.32Q233.54 54.56 233.23 54.99Q233.03 55.27 232.96 55.57Q232.92 55.74 232.92 55.93L234.47 55.93Q234.47 55.71 234.57 55.56Q234.62 55.48 234.69 55.41Q234.92 55.23 235.31 55.23Q235.72 55.23 235.93 55.43Q235.95 55.45 235.96 55.47Q235.97 55.48 235.98 55.49Q236.17 55.73 236.17 56.11L236.17 56.44L235.45 56.44Q234.16 56.45 233.48 56.94Q233.21 57.14 233.04 57.4Q232.79 57.8 232.79 58.36Q232.79 58.74 232.94 59.06Q233.08 59.37 233.35 59.61Q233.49 59.73 233.64 59.82Q234.12 60.1 234.77 60.1Q235.31 60.1 235.73 59.88Q236.01 59.73 236.23 59.47ZM110.31 60L111.87 60L111.87 54.18L106.81 54.18L106.81 60L108.36 60L108.36 55.44L110.31 55.44L110.31 60ZM116.01 55.43L117.88 55.43L117.88 54.18L112.62 54.18L112.62 55.43L114.45 55.43L114.45 60L116.01 60L116.01 55.43ZM124.82 54.18L124.82 60L127.61 60Q128.77 60 129.38 59.57Q129.63 59.4 129.77 59.17Q129.99 58.82 129.99 58.34Q129.99 58.07 129.89 57.85Q129.81 57.65 129.64 57.48Q129.28 57.14 128.66 57.02Q129.17 56.85 129.43 56.53Q129.58 56.35 129.65 56.14Q129.7 55.98 129.7 55.81Q129.7 55.39 129.52 55.07Q129.36 54.8 129.06 54.6Q128.43 54.18 127.24 54.18L124.82 54.18ZM141.68 60L141.68 54.18L139.04 54.18Q137.95 54.21 137.3 54.74Q136.96 55.02 136.8 55.37Q136.64 55.71 136.64 56.13Q136.64 56.47 136.76 56.76Q136.82 56.92 136.92 57.07Q136.94 57.09 136.95 57.1Q137.23 57.49 137.73 57.72L136.46 60L138.03 60L139.15 57.99L140.13 57.99L140.13 60L141.68 60ZM149.22 60L150.78 60L150.78 54.18L145.72 54.18L145.72 60L147.28 60L147.28 55.44L149.22 55.44L149.22 60ZM164.79 57.64Q164.6 58.18 164.07 58.74L163.57 58.74L163.57 61.74L165.16 61.74L165.16 60L168.6 60L168.6 61.74L170.15 61.74L170.15 58.74L169.31 58.74L169.31 54.18L165.04 54.18L165 56.08Q164.97 57.09 164.79 57.64ZM181.72 57.84L182.43 57.84L183.58 60L185.49 60L183.64 56.92L185.44 54.18L183.52 54.18L182.3 56.35L181.72 56.35L181.72 54.18L180.17 54.18L180.17 56.35L179.6 56.35L178.39 54.18L176.47 54.18L178.28 56.96L176.45 60L178.32 60L179.48 57.84L180.17 57.84L180.17 60L181.72 60L181.72 57.84ZM199.92 54.18L198.4 58.16L196.9 54.18L194.97 54.18L194.97 60L196.52 60L196.52 56.49L197.88 60L198.93 60L200.32 56.43L200.32 60L201.87 60L201.87 54.18L199.92 54.18ZM212.06 55.43L213.93 55.43L213.93 54.18L208.67 54.18L208.67 55.43L210.51 55.43L210.51 60L212.06 60L212.06 55.43ZM225.57 60L225.57 54.18L221.19 54.18L221.09 56.65Q221.04 57.76 220.85 58.22Q220.72 58.53 220.49 58.64Q220.38 58.71 220.23 58.72L220.04 58.73L220.06 60L220.58 60Q221.22 59.98 221.64 59.68Q221.84 59.53 221.99 59.32Q222.46 58.67 222.55 57.23L222.65 55.44L224.02 55.44L224.02 60L225.57 60ZM231.82 60L231.82 54.18L227.45 54.18L227.34 56.65Q227.29 57.76 227.1 58.22Q226.97 58.53 226.75 58.64Q226.63 58.71 226.48 58.72L226.29 58.73L226.31 60L226.83 60Q227.47 59.98 227.89 59.68Q228.09 59.53 228.24 59.32Q228.71 58.67 228.81 57.23L228.9 55.44L230.27 55.44L230.27 60L231.82 60ZM102.21 58.41Q101.9 57.98 101.9 57.15Q101.9 56.22 102.21 55.78Q102.35 55.58 102.54 55.47Q102.78 55.33 103.09 55.33Q103.42 55.33 103.66 55.47Q103.85 55.58 103.99 55.78Q104.3 56.22 104.3 57.04Q104.3 57.99 103.99 58.42Q103.85 58.61 103.66 58.71Q103.42 58.85 103.11 58.85Q102.76 58.85 102.51 58.7Q102.34 58.59 102.21 58.41ZM120.12 58.41Q119.8 57.98 119.8 57.15Q119.8 56.22 120.12 55.78Q120.25 55.58 120.44 55.47Q120.68 55.33 121 55.33Q121.32 55.33 121.56 55.47Q121.75 55.58 121.89 55.78Q122.2 56.22 122.2 57.04Q122.2 57.99 121.89 58.42Q121.75 58.61 121.56 58.71Q121.32 58.85 121.01 58.85Q120.66 58.85 120.42 58.7Q120.24 58.59 120.12 58.41ZM159.78 58.41Q159.47 57.98 159.47 57.15Q159.47 56.22 159.78 55.78Q159.92 55.58 160.11 55.47Q160.34 55.33 160.66 55.33Q160.98 55.33 161.22 55.47Q161.41 55.58 161.55 55.78Q161.87 56.22 161.87 57.04Q161.87 57.99 161.55 58.42Q161.41 58.61 161.23 58.71Q160.99 58.85 160.67 58.85Q160.33 58.85 160.08 58.7Q159.91 58.59 159.78 58.41ZM205.2 55.46Q205.42 55.33 205.71 55.33Q206.14 55.33 206.39 55.54Q206.44 55.57 206.48 55.61Q206.48 55.62 206.49 55.63Q206.75 55.91 206.76 56.41L206.76 56.54L204.6 56.54Q204.68 55.96 204.97 55.64Q205.07 55.53 205.2 55.46ZM155.36 55.78Q155.64 56.22 155.64 57.03Q155.64 58.36 155.06 58.72Q154.84 58.85 154.53 58.85Q154.08 58.85 153.8 58.63Q153.63 58.5 153.52 58.28L153.52 55.9Q153.62 55.7 153.77 55.57Q154.05 55.34 154.52 55.34Q154.82 55.34 155.04 55.47Q155.23 55.58 155.36 55.78ZM127.33 56.54L126.37 56.54L126.37 55.43L127.24 55.43Q127.7 55.43 127.92 55.56Q127.99 55.6 128.04 55.66Q128.14 55.79 128.14 56.02Q128.14 56.16 128.08 56.27Q127.91 56.53 127.33 56.54ZM140.13 56.9L139.07 56.9Q138.74 56.9 138.51 56.74Q138.47 56.72 138.44 56.69Q138.31 56.58 138.25 56.44Q138.19 56.32 138.19 56.18Q138.19 56.06 138.23 55.95Q138.29 55.78 138.45 55.65Q138.48 55.63 138.5 55.61Q138.75 55.43 139.12 55.43L140.13 55.43L140.13 56.9ZM167.77 58.74L165.9 58.74Q166.5 57.77 166.55 56.17L166.56 55.47L167.77 55.47L167.77 58.74ZM133.48 58.84Q133.26 58.92 133.02 58.92Q132.7 58.92 132.5 58.76Q132.48 58.74 132.46 58.73Q132.38 58.65 132.33 58.55Q132.26 58.41 132.26 58.25L132.27 58.16Q132.29 57.91 132.42 57.74Q132.7 57.35 133.5 57.35L134.09 57.35L134.09 58.35Q134.06 58.4 134.03 58.44Q133.89 58.64 133.66 58.76Q133.57 58.81 133.48 58.84ZM173.48 58.84Q173.26 58.92 173.02 58.92Q172.69 58.92 172.5 58.76Q172.48 58.74 172.46 58.73Q172.37 58.65 172.32 58.55Q172.26 58.41 172.26 58.25L172.26 58.16Q172.29 57.91 172.41 57.74Q172.7 57.35 173.5 57.35L174.08 57.35L174.08 58.35Q174.06 58.4 174.03 58.44Q173.89 58.64 173.65 58.76Q173.57 58.81 173.48 58.84ZM188.77 58.84Q188.55 58.92 188.31 58.92Q187.99 58.92 187.79 58.76Q187.77 58.74 187.75 58.73Q187.67 58.65 187.62 58.55Q187.55 58.41 187.55 58.25L187.56 58.16Q187.58 57.91 187.71 57.74Q187.99 57.35 188.8 57.35L189.38 57.35L189.38 58.35Q189.35 58.4 189.32 58.44Q189.18 58.64 188.95 58.76Q188.86 58.81 188.77 58.84ZM217.16 58.84Q216.95 58.92 216.7 58.92Q216.38 58.92 216.18 58.76Q216.16 58.74 216.15 58.73Q216.06 58.65 216.01 58.55Q215.94 58.41 215.94 58.25L215.95 58.16Q215.97 57.91 216.1 57.74Q216.38 57.35 217.19 57.35L217.77 57.35L217.77 58.35Q217.74 58.4 217.71 58.44Q217.58 58.64 217.34 58.76Q217.25 58.81 217.16 58.84ZM235.56 58.84Q235.35 58.92 235.11 58.92Q234.78 58.92 234.58 58.76Q234.56 58.74 234.55 58.73Q234.46 58.65 234.41 58.55Q234.34 58.41 234.34 58.25L234.35 58.16Q234.37 57.91 234.5 57.74Q234.78 57.35 235.59 57.35L236.17 57.35L236.17 58.35Q236.14 58.4 236.11 58.44Q235.98 58.64 235.74 58.76Q235.65 58.81 235.56 58.84ZM126.37 58.75L126.37 57.58L127.66 57.58Q128.16 57.59 128.34 57.84Q128.44 57.97 128.44 58.18Q128.44 58.37 128.35 58.5Q128.17 58.75 127.62 58.75L126.37 58.75Z" fill="#3E7ABF" fill-opacity="1.000000" fill-rule="evenodd"/>
</svg>
