<svg width="256" height="82" viewBox="0 0 256 82" fill="none" xmlns="http://www.w3.org/2000/svg">
<path fill-rule="evenodd" clip-rule="evenodd" d="M43.2037 8.5094C58.3236 8.5094 71.0308 18.8394 74.6547 32.8277H61.5834C58.4512 25.793 51.4008 20.8876 43.2037 20.8874V8.5094ZM43.2037 61.1122C51.8269 61.112 59.1814 55.6834 62.0397 48.0578H74.9207C71.6977 62.6077 58.7223 73.4905 43.2037 73.4905V61.1122Z" fill="url(#paint0_linear_65_63)"/>
<path fill-rule="evenodd" clip-rule="evenodd" d="M42.5411 0V27.2402H40.1934V0H42.5411ZM40.2086 82L39.6924 54.7646L42.0309 54.728L42.5472 81.9634L40.2086 82ZM32.6296 81.1557L37.1624 54.2943L39.4737 54.6791L34.9407 81.5407L32.6296 81.1557ZM25.3398 78.9205L34.7657 53.3589L36.9668 54.1651L27.5409 79.7268L25.3398 78.9205ZM18.5924 75.378L32.5867 51.997L34.5951 53.197L20.601 76.578L18.5924 75.378ZM12.6144 70.6524L30.6946 50.2582L32.4462 51.8062L14.366 72.2006L12.6144 70.6524ZM7.61595 64.901L29.1588 48.196L30.5895 50.0464L9.04666 66.7514L7.61595 64.901ZM3.76592 58.3302L28.0291 45.8903L29.0929 47.9694L4.82976 60.4094L3.76592 58.3302ZM1.19828 51.1581L27.3457 43.4119L28.006 45.656L1.85877 53.4021L1.19828 51.1581ZM0 43.6381L27.1303 40.8528L27.3688 43.1794L0.238448 45.9648L0 43.6381ZM0.21433 36.0233L27.3927 38.295L27.2003 40.6307L0.0218584 38.3591L0.21433 36.0233ZM1.83737 28.5854L28.1269 35.8356L27.5034 38.0889L1.2138 30.8386L1.83737 28.5854ZM4.80655 21.5727L29.3012 33.5517L28.274 35.6492L3.77933 23.6702L4.80655 21.5727ZM9.02646 15.2253L30.8821 31.5199L29.4788 33.3977L7.62318 17.1032L9.02646 15.2253ZM14.3443 9.77017L32.8078 29.8189L31.0836 31.4036L12.6201 11.355L14.3443 9.77017ZM20.5826 5.39128L35.0174 28.5032L33.0272 29.7397L18.5924 6.62772L20.5826 5.39128ZM27.5215 2.23619L37.4304 27.6148L35.2476 28.4667L25.3388 3.08811L27.5215 2.23619ZM34.9255 0.420319L39.9669 27.191L37.665 27.6216L32.6234 0.85087L34.9255 0.420319Z" fill="url(#paint1_radial_65_63)"/>
<path d="M104.325 31.275C104.325 34.65 106.875 37.025 110.425 37.025C112.95 37.025 114.925 35.85 115.9 33.95H119.6C118.525 37.875 114.925 40.375 110.425 40.375C104.95 40.375 100.825 36.475 100.825 31.275C100.825 26 104.925 22.125 110.425 22.125C114.925 22.125 118.5 24.625 119.6 28.55H115.9C114.95 26.625 112.975 25.475 110.425 25.475C106.85 25.475 104.325 27.825 104.325 31.275ZM127.183 40V25.725H120.983V22.5H136.833V25.725H130.683V40H127.183ZM135.342 40L144.117 22.5H148.017L156.842 40H152.942L150.867 35.875H141.292L139.217 40H135.342ZM142.892 32.675H149.242L146.067 26.375L142.892 32.675ZM159.821 33.275L160.846 22.5H175.496V40H171.996V25.725H164.071L163.346 33.025C162.821 38.475 161.271 40.375 157.246 40.375V37.175C158.896 37.175 159.521 36.125 159.821 33.275ZM178.651 22.5H182.151V27.75H187.751C191.476 27.75 194.551 30.525 194.551 33.875C194.551 37.425 191.651 40 187.751 40H178.651V22.5ZM191.051 33.875C191.051 32.175 189.626 30.85 187.751 30.85H182.151V36.925H187.751C189.676 36.925 191.051 35.625 191.051 33.875ZM202.111 36.75H204.036C205.361 34.525 206.011 31.925 206.011 29V22.5H218.761V36.75H220.961V44H217.461V40H205.611V44H202.111V36.75ZM207.661 36.75H215.261V25.725H209.511V29.075C209.511 31.875 208.911 34.4 207.661 36.75ZM223.011 40V22.5H231.861C235.486 22.5 237.936 24.3 237.936 27.075C237.936 28.8 236.861 30.225 235.211 31.025C237.386 31.75 238.736 33.2 238.736 35.125C238.736 38.05 235.811 40 231.861 40H223.011ZM234.586 27.625C234.586 26.35 233.436 25.5 231.861 25.5H226.511V29.7H231.861C233.336 29.7 234.586 28.825 234.586 27.625ZM235.211 34.8C235.211 33.375 233.961 32.6 231.861 32.6H226.511V36.975H231.861C233.886 36.975 235.211 36.15 235.211 34.8Z" fill="white"/>
<path d="M100.354 57.1533V57.0405C100.354 56.6144 100.415 56.2223 100.537 55.8643C100.659 55.5026 100.836 55.1893 101.069 54.9243C101.302 54.6593 101.588 54.4535 101.928 54.3066C102.268 54.1562 102.659 54.0811 103.099 54.0811C103.54 54.0811 103.932 54.1562 104.275 54.3066C104.619 54.4535 104.907 54.6593 105.14 54.9243C105.376 55.1893 105.556 55.5026 105.677 55.8643C105.799 56.2223 105.86 56.6144 105.86 57.0405V57.1533C105.86 57.5758 105.799 57.9679 105.677 58.3296C105.556 58.6877 105.376 59.001 105.14 59.2695C104.907 59.5345 104.621 59.7404 104.281 59.8872C103.941 60.034 103.55 60.1074 103.11 60.1074C102.669 60.1074 102.277 60.034 101.934 59.8872C101.593 59.7404 101.305 59.5345 101.069 59.2695C100.836 59.001 100.659 58.6877 100.537 58.3296C100.415 57.9679 100.354 57.5758 100.354 57.1533ZM101.901 57.0405V57.1533C101.901 57.3968 101.923 57.6242 101.966 57.8354C102.009 58.0467 102.077 58.2329 102.17 58.394C102.267 58.5516 102.392 58.6751 102.546 58.7646C102.7 58.8542 102.888 58.8989 103.11 58.8989C103.325 58.8989 103.509 58.8542 103.663 58.7646C103.817 58.6751 103.941 58.5516 104.034 58.394C104.127 58.2329 104.195 58.0467 104.238 57.8354C104.284 57.6242 104.308 57.3968 104.308 57.1533V57.0405C104.308 56.8042 104.284 56.5822 104.238 56.3745C104.195 56.1632 104.125 55.9771 104.028 55.8159C103.935 55.6512 103.812 55.5223 103.658 55.4292C103.504 55.3361 103.318 55.2896 103.099 55.2896C102.881 55.2896 102.694 55.3361 102.541 55.4292C102.39 55.5223 102.267 55.6512 102.17 55.8159C102.077 55.9771 102.009 56.1632 101.966 56.3745C101.923 56.5822 101.901 56.8042 101.901 57.0405ZM110.721 54.1885V55.4023H107.906V54.1885H110.721ZM108.352 54.1885V60H106.805V54.1885H108.352ZM111.849 54.1885V60H110.296V54.1885H111.849ZM116 54.1885V60H114.448V54.1885H116ZM117.87 54.1885V55.3862H112.606V54.1885H117.87ZM118.229 57.1533V57.0405C118.229 56.6144 118.29 56.2223 118.412 55.8643C118.534 55.5026 118.711 55.1893 118.944 54.9243C119.177 54.6593 119.463 54.4535 119.803 54.3066C120.143 54.1562 120.534 54.0811 120.974 54.0811C121.415 54.0811 121.807 54.1562 122.15 54.3066C122.494 54.4535 122.782 54.6593 123.015 54.9243C123.251 55.1893 123.431 55.5026 123.552 55.8643C123.674 56.2223 123.735 56.6144 123.735 57.0405V57.1533C123.735 57.5758 123.674 57.9679 123.552 58.3296C123.431 58.6877 123.251 59.001 123.015 59.2695C122.782 59.5345 122.496 59.7404 122.156 59.8872C121.816 60.034 121.425 60.1074 120.985 60.1074C120.544 60.1074 120.152 60.034 119.809 59.8872C119.468 59.7404 119.18 59.5345 118.944 59.2695C118.711 59.001 118.534 58.6877 118.412 58.3296C118.29 57.9679 118.229 57.5758 118.229 57.1533ZM119.776 57.0405V57.1533C119.776 57.3968 119.798 57.6242 119.841 57.8354C119.884 58.0467 119.952 58.2329 120.045 58.394C120.142 58.5516 120.267 58.6751 120.421 58.7646C120.575 58.8542 120.763 58.8989 120.985 58.8989C121.2 58.8989 121.384 58.8542 121.538 58.7646C121.692 58.6751 121.816 58.5516 121.909 58.394C122.002 58.2329 122.07 58.0467 122.113 57.8354C122.159 57.6242 122.183 57.3968 122.183 57.1533V57.0405C122.183 56.8042 122.159 56.5822 122.113 56.3745C122.07 56.1632 122 55.9771 121.903 55.8159C121.81 55.6512 121.687 55.5223 121.533 55.4292C121.379 55.3361 121.193 55.2896 120.974 55.2896C120.756 55.2896 120.569 55.3361 120.416 55.4292C120.265 55.5223 120.142 55.6512 120.045 55.8159C119.952 55.9771 119.884 56.1632 119.841 56.3745C119.798 56.5822 119.776 56.8042 119.776 57.0405ZM127.581 57.5723H125.76L125.749 56.5571H127.253C127.453 56.5571 127.616 56.5374 127.742 56.498C127.867 56.4551 127.958 56.3924 128.016 56.3101C128.076 56.2241 128.107 56.1203 128.107 55.9985C128.107 55.8911 128.087 55.7998 128.048 55.7246C128.012 55.6458 127.957 55.5814 127.881 55.5312C127.806 55.4811 127.711 55.4453 127.597 55.4238C127.486 55.3988 127.355 55.3862 127.205 55.3862H126.334V60H124.788V54.1885H127.205C127.584 54.1885 127.924 54.2225 128.225 54.2905C128.526 54.355 128.782 54.4535 128.993 54.5859C129.208 54.7184 129.371 54.8867 129.482 55.0908C129.597 55.2913 129.654 55.5295 129.654 55.8052C129.654 55.9842 129.613 56.1525 129.53 56.3101C129.451 56.4676 129.333 56.6073 129.176 56.729C129.018 56.8507 128.823 56.951 128.59 57.0298C128.361 57.105 128.096 57.1515 127.795 57.1694L127.581 57.5723ZM127.581 60H125.378L125.91 58.8022H127.581C127.77 58.8022 127.926 58.779 128.048 58.7324C128.17 58.6859 128.259 58.6178 128.316 58.5283C128.377 58.4352 128.408 58.3242 128.408 58.1953C128.408 58.07 128.381 57.9608 128.327 57.8677C128.273 57.7746 128.186 57.703 128.064 57.6528C127.946 57.5991 127.785 57.5723 127.581 57.5723H126.136L126.146 56.5571H127.79L128.166 56.9653C128.574 56.9904 128.911 57.0674 129.176 57.1963C129.441 57.3252 129.636 57.4899 129.761 57.6904C129.89 57.8874 129.955 58.104 129.955 58.3403C129.955 58.616 129.903 58.8577 129.799 59.0654C129.695 59.2731 129.541 59.4468 129.337 59.5864C129.136 59.7225 128.889 59.8263 128.596 59.8979C128.302 59.966 127.964 60 127.581 60ZM134.042 58.6895V56.1006C134.042 55.9144 134.012 55.755 133.951 55.6226C133.89 55.4865 133.795 55.3809 133.666 55.3057C133.541 55.2305 133.378 55.1929 133.177 55.1929C133.005 55.1929 132.857 55.2233 132.731 55.2842C132.606 55.3415 132.509 55.4256 132.441 55.5366C132.373 55.644 132.339 55.7712 132.339 55.918H130.792C130.792 55.6709 130.85 55.4364 130.964 55.2144C131.079 54.9924 131.245 54.7972 131.464 54.6289C131.682 54.457 131.942 54.3228 132.243 54.2261C132.547 54.1294 132.887 54.0811 133.263 54.0811C133.714 54.0811 134.115 54.1562 134.466 54.3066C134.817 54.457 135.093 54.6826 135.293 54.9834C135.498 55.2842 135.6 55.6602 135.6 56.1113V58.5981C135.6 58.9168 135.619 59.1782 135.659 59.3823C135.698 59.5828 135.755 59.7583 135.831 59.9087V60H134.268C134.192 59.8424 134.135 59.6455 134.096 59.4092C134.06 59.1693 134.042 58.9294 134.042 58.6895ZM134.246 56.4604L134.257 57.3359H133.392C133.188 57.3359 133.011 57.3592 132.86 57.4058C132.71 57.4523 132.586 57.5186 132.49 57.6045C132.393 57.6868 132.321 57.7835 132.275 57.8945C132.232 58.0055 132.21 58.1273 132.21 58.2598C132.21 58.3923 132.241 58.5122 132.302 58.6196C132.363 58.7235 132.45 58.8058 132.565 58.8667C132.68 58.924 132.814 58.9526 132.968 58.9526C133.201 58.9526 133.403 58.9061 133.575 58.813C133.747 58.7199 133.879 58.6053 133.972 58.4692C134.069 58.3332 134.119 58.2043 134.123 58.0825L134.531 58.7378C134.473 58.8846 134.395 59.0368 134.294 59.1943C134.198 59.3519 134.074 59.5005 133.924 59.6401C133.773 59.7762 133.593 59.889 133.381 59.9785C133.17 60.0645 132.919 60.1074 132.629 60.1074C132.261 60.1074 131.926 60.034 131.625 59.8872C131.328 59.7368 131.091 59.5309 130.916 59.2695C130.744 59.0046 130.658 58.7038 130.658 58.3672C130.658 58.0628 130.715 57.7925 130.83 57.5562C130.945 57.3198 131.113 57.1211 131.335 56.96C131.561 56.7952 131.842 56.6717 132.178 56.5894C132.515 56.5034 132.905 56.4604 133.349 56.4604H134.246ZM138.043 57.0996H139.612L137.995 60H136.432L138.043 57.0996ZM139.085 54.1885H141.637V60H140.09V55.3862H139.085C138.874 55.3862 138.699 55.4256 138.559 55.5044C138.419 55.5796 138.316 55.6781 138.248 55.7998C138.183 55.918 138.151 56.0397 138.151 56.165C138.151 56.2868 138.183 56.4049 138.248 56.5195C138.312 56.6341 138.412 56.729 138.548 56.8042C138.684 56.8794 138.854 56.917 139.059 56.917H140.665V57.9697H139.059C138.675 57.9697 138.332 57.9232 138.027 57.8301C137.727 57.737 137.469 57.6081 137.254 57.4434C137.043 57.2751 136.88 57.0799 136.765 56.8579C136.654 56.6323 136.599 56.3853 136.599 56.1167C136.599 55.8374 136.656 55.5814 136.771 55.3486C136.885 55.1159 137.05 54.9118 137.265 54.7363C137.479 54.5609 137.739 54.4266 138.043 54.3335C138.351 54.2368 138.699 54.1885 139.085 54.1885ZM149.597 54.1885V55.4023H146.782V54.1885H149.597ZM147.228 54.1885V60H145.681V54.1885H147.228ZM150.725 54.1885V60H149.172V54.1885H150.725ZM153.464 55.3057V62.2344H151.917V54.1885H153.351L153.464 55.3057ZM157.143 57.0298V57.1426C157.143 57.5651 157.093 57.9572 156.993 58.3188C156.896 58.6805 156.753 58.9956 156.563 59.2642C156.373 59.5291 156.137 59.7368 155.854 59.8872C155.575 60.034 155.252 60.1074 154.887 60.1074C154.533 60.1074 154.225 60.0358 153.963 59.8926C153.702 59.7493 153.482 59.5488 153.303 59.291C153.127 59.0296 152.986 58.7271 152.878 58.3833C152.771 58.0396 152.689 57.6707 152.631 57.2769V56.9814C152.689 56.5589 152.771 56.1722 152.878 55.8213C152.986 55.4668 153.127 55.1606 153.303 54.9028C153.482 54.6414 153.7 54.4391 153.958 54.2959C154.219 54.1527 154.526 54.0811 154.876 54.0811C155.245 54.0811 155.569 54.1509 155.849 54.2905C156.132 54.4302 156.368 54.6307 156.558 54.8921C156.751 55.1535 156.896 55.465 156.993 55.8267C157.093 56.1883 157.143 56.5894 157.143 57.0298ZM155.591 57.1426V57.0298C155.591 56.7827 155.569 56.5553 155.526 56.3477C155.487 56.1364 155.423 55.952 155.333 55.7944C155.247 55.6369 155.132 55.5151 154.989 55.4292C154.85 55.3397 154.68 55.2949 154.479 55.2949C154.268 55.2949 154.087 55.3289 153.937 55.397C153.79 55.465 153.67 55.5635 153.577 55.6924C153.484 55.8213 153.414 55.9753 153.367 56.1543C153.321 56.3333 153.292 56.5356 153.281 56.7612V57.5078C153.299 57.7728 153.349 58.0109 153.432 58.2222C153.514 58.4299 153.641 58.5946 153.813 58.7163C153.985 58.8381 154.21 58.8989 154.49 58.8989C154.694 58.8989 154.866 58.8542 155.005 58.7646C155.145 58.6715 155.258 58.5444 155.344 58.3833C155.433 58.2222 155.496 58.036 155.532 57.8247C155.571 57.6134 155.591 57.3861 155.591 57.1426ZM157.857 57.1533V57.0405C157.857 56.6144 157.918 56.2223 158.04 55.8643C158.162 55.5026 158.339 55.1893 158.572 54.9243C158.805 54.6593 159.091 54.4535 159.431 54.3066C159.771 54.1562 160.162 54.0811 160.602 54.0811C161.042 54.0811 161.435 54.1562 161.778 54.3066C162.122 54.4535 162.41 54.6593 162.643 54.9243C162.879 55.1893 163.058 55.5026 163.18 55.8643C163.302 56.2223 163.363 56.6144 163.363 57.0405V57.1533C163.363 57.5758 163.302 57.9679 163.18 58.3296C163.058 58.6877 162.879 59.001 162.643 59.2695C162.41 59.5345 162.124 59.7404 161.784 59.8872C161.444 60.034 161.053 60.1074 160.613 60.1074C160.172 60.1074 159.78 60.034 159.437 59.8872C159.096 59.7404 158.808 59.5345 158.572 59.2695C158.339 59.001 158.162 58.6877 158.04 58.3296C157.918 57.9679 157.857 57.5758 157.857 57.1533ZM159.404 57.0405V57.1533C159.404 57.3968 159.426 57.6242 159.469 57.8354C159.512 58.0467 159.58 58.2329 159.673 58.394C159.77 58.5516 159.895 58.6751 160.049 58.7646C160.203 58.8542 160.391 58.8989 160.613 58.8989C160.828 58.8989 161.012 58.8542 161.166 58.7646C161.32 58.6751 161.444 58.5516 161.537 58.394C161.63 58.2329 161.698 58.0467 161.741 57.8354C161.787 57.6242 161.811 57.3968 161.811 57.1533V57.0405C161.811 56.8042 161.787 56.5822 161.741 56.3745C161.698 56.1632 161.628 55.9771 161.531 55.8159C161.438 55.6512 161.315 55.5223 161.161 55.4292C161.007 55.3361 160.82 55.2896 160.602 55.2896C160.384 55.2896 160.197 55.3361 160.043 55.4292C159.893 55.5223 159.77 55.6512 159.673 55.8159C159.58 55.9771 159.512 56.1632 159.469 56.3745C159.426 56.5822 159.404 56.8042 159.404 57.0405ZM164.974 54.1885H166.521L166.473 56.1328C166.458 56.7559 166.387 57.2912 166.258 57.7388C166.129 58.1864 165.957 58.5623 165.742 58.8667C165.527 59.1711 165.282 59.4146 165.006 59.5972C164.734 59.7762 164.448 59.9105 164.147 60H163.857L163.841 58.8076L164.002 58.7915C164.185 58.6017 164.335 58.4173 164.453 58.2383C164.571 58.0557 164.663 57.8641 164.727 57.6636C164.792 57.4631 164.838 57.2393 164.867 56.9922C164.899 56.7451 164.919 56.4587 164.926 56.1328L164.974 54.1885ZM165.393 54.1885H169.244V60H167.703V55.4292H165.393V54.1885ZM163.502 58.7915H170.077V61.7456H168.53V60H165.087V61.7456H163.502V58.7915ZM174.003 58.6895V56.1006C174.003 55.9144 173.972 55.755 173.912 55.6226C173.851 55.4865 173.756 55.3809 173.627 55.3057C173.502 55.2305 173.339 55.1929 173.138 55.1929C172.966 55.1929 172.818 55.2233 172.692 55.2842C172.567 55.3415 172.47 55.4256 172.402 55.5366C172.334 55.644 172.3 55.7712 172.3 55.918H170.753C170.753 55.6709 170.811 55.4364 170.925 55.2144C171.04 54.9924 171.206 54.7972 171.425 54.6289C171.643 54.457 171.903 54.3228 172.204 54.2261C172.508 54.1294 172.848 54.0811 173.224 54.0811C173.675 54.0811 174.076 54.1562 174.427 54.3066C174.778 54.457 175.054 54.6826 175.254 54.9834C175.458 55.2842 175.561 55.6602 175.561 56.1113V58.5981C175.561 58.9168 175.58 59.1782 175.62 59.3823C175.659 59.5828 175.716 59.7583 175.792 59.9087V60H174.229C174.153 59.8424 174.096 59.6455 174.057 59.4092C174.021 59.1693 174.003 58.9294 174.003 58.6895ZM174.207 56.4604L174.218 57.3359H173.353C173.149 57.3359 172.972 57.3592 172.821 57.4058C172.671 57.4523 172.547 57.5186 172.451 57.6045C172.354 57.6868 172.282 57.7835 172.236 57.8945C172.193 58.0055 172.171 58.1273 172.171 58.2598C172.171 58.3923 172.202 58.5122 172.263 58.6196C172.324 58.7235 172.411 58.8058 172.526 58.8667C172.64 58.924 172.775 58.9526 172.929 58.9526C173.161 58.9526 173.364 58.9061 173.536 58.813C173.708 58.7199 173.84 58.6053 173.933 58.4692C174.03 58.3332 174.08 58.2043 174.083 58.0825L174.492 58.7378C174.434 58.8846 174.356 59.0368 174.255 59.1943C174.159 59.3519 174.035 59.5005 173.885 59.6401C173.734 59.7762 173.554 59.889 173.342 59.9785C173.131 60.0645 172.88 60.1074 172.59 60.1074C172.222 60.1074 171.887 60.034 171.586 59.8872C171.289 59.7368 171.052 59.5309 170.877 59.2695C170.705 59.0046 170.619 58.7038 170.619 58.3672C170.619 58.0628 170.676 57.7925 170.791 57.5562C170.906 57.3198 171.074 57.1211 171.296 56.96C171.521 56.7952 171.803 56.6717 172.139 56.5894C172.476 56.5034 172.866 56.4604 173.31 56.4604H174.207ZM178.805 57.8086L176.388 54.1885H178.305L179.541 56.3799H180.652L180.464 57.8086H178.805ZM179.562 57.5454L178.235 60H176.372L178.3 56.7988L179.562 57.5454ZM181.657 54.1885V60H180.11V54.1885H181.657ZM185.395 54.1885L182.978 57.8086H181.318L181.13 56.3799H182.242L183.472 54.1885H185.395ZM183.542 60L182.215 57.5454L183.526 56.7988L185.443 60H183.542ZM189.332 58.6895V56.1006C189.332 55.9144 189.302 55.755 189.241 55.6226C189.18 55.4865 189.085 55.3809 188.956 55.3057C188.831 55.2305 188.668 55.1929 188.467 55.1929C188.295 55.1929 188.147 55.2233 188.021 55.2842C187.896 55.3415 187.799 55.4256 187.731 55.5366C187.663 55.644 187.629 55.7712 187.629 55.918H186.083C186.083 55.6709 186.14 55.4364 186.254 55.2144C186.369 54.9924 186.535 54.7972 186.754 54.6289C186.972 54.457 187.232 54.3228 187.533 54.2261C187.837 54.1294 188.177 54.0811 188.553 54.0811C189.004 54.0811 189.405 54.1562 189.756 54.3066C190.107 54.457 190.383 54.6826 190.583 54.9834C190.788 55.2842 190.89 55.6602 190.89 56.1113V58.5981C190.89 58.9168 190.909 59.1782 190.949 59.3823C190.988 59.5828 191.045 59.7583 191.121 59.9087V60H189.558C189.482 59.8424 189.425 59.6455 189.386 59.4092C189.35 59.1693 189.332 58.9294 189.332 58.6895ZM189.536 56.4604L189.547 57.3359H188.682C188.478 57.3359 188.301 57.3592 188.15 57.4058C188 57.4523 187.876 57.5186 187.78 57.6045C187.683 57.6868 187.611 57.7835 187.565 57.8945C187.522 58.0055 187.5 58.1273 187.5 58.2598C187.5 58.3923 187.531 58.5122 187.592 58.6196C187.653 58.7235 187.74 58.8058 187.855 58.8667C187.97 58.924 188.104 58.9526 188.258 58.9526C188.491 58.9526 188.693 58.9061 188.865 58.813C189.037 58.7199 189.169 58.6053 189.262 58.4692C189.359 58.3332 189.409 58.2043 189.413 58.0825L189.821 58.7378C189.764 58.8846 189.685 59.0368 189.584 59.1943C189.488 59.3519 189.364 59.5005 189.214 59.6401C189.063 59.7762 188.883 59.889 188.671 59.9785C188.46 60.0645 188.209 60.1074 187.919 60.1074C187.551 60.1074 187.216 60.034 186.915 59.8872C186.618 59.7368 186.382 59.5309 186.206 59.2695C186.034 59.0046 185.948 58.7038 185.948 58.3672C185.948 58.0628 186.006 57.7925 186.12 57.5562C186.235 57.3198 186.403 57.1211 186.625 56.96C186.851 56.7952 187.132 56.6717 187.468 56.5894C187.805 56.5034 188.195 56.4604 188.639 56.4604H189.536ZM198.355 58.2222L199.881 54.1885H201.143L198.876 60H197.834L195.579 54.1885H196.841L198.355 58.2222ZM196.47 54.1885V60H194.923V54.1885H196.47ZM200.278 60V54.1885H201.825V60H200.278ZM205.854 60.1074C205.402 60.1074 204.998 60.0358 204.64 59.8926C204.282 59.7458 203.977 59.5435 203.727 59.2856C203.479 59.0278 203.29 58.7288 203.157 58.3887C203.025 58.0449 202.958 57.6797 202.958 57.293V57.0781C202.958 56.6377 203.021 56.2349 203.146 55.8696C203.272 55.5044 203.451 55.1875 203.684 54.9189C203.92 54.6504 204.206 54.4445 204.543 54.3013C204.88 54.1545 205.259 54.0811 205.682 54.0811C206.093 54.0811 206.459 54.1491 206.777 54.2852C207.096 54.4212 207.363 54.6146 207.578 54.8652C207.796 55.1159 207.961 55.4167 208.072 55.7676C208.183 56.1149 208.238 56.5016 208.238 56.9277V57.5723H203.619V56.541H206.718V56.4229C206.718 56.208 206.679 56.0164 206.6 55.8481C206.525 55.6763 206.41 55.5402 206.256 55.4399C206.102 55.3397 205.905 55.2896 205.666 55.2896C205.461 55.2896 205.286 55.3343 205.139 55.4238C204.992 55.5133 204.872 55.6387 204.779 55.7998C204.69 55.9609 204.622 56.1507 204.575 56.3691C204.532 56.584 204.511 56.8203 204.511 57.0781V57.293C204.511 57.5257 204.543 57.7406 204.607 57.9375C204.675 58.1344 204.77 58.3045 204.892 58.4478C205.017 58.591 205.168 58.702 205.343 58.7808C205.522 58.8595 205.725 58.8989 205.95 58.8989C206.229 58.8989 206.489 58.8452 206.729 58.7378C206.972 58.6268 207.182 58.4603 207.357 58.2383L208.109 59.0547C207.988 59.2301 207.821 59.3984 207.61 59.5596C207.402 59.7207 207.152 59.8532 206.858 59.957C206.564 60.0573 206.229 60.1074 205.854 60.1074ZM212.014 54.1885V60H210.462V54.1885H212.014ZM213.883 54.1885V55.3862H208.62V54.1885H213.883ZM217.724 58.6895V56.1006C217.724 55.9144 217.693 55.755 217.632 55.6226C217.571 55.4865 217.477 55.3809 217.348 55.3057C217.222 55.2305 217.059 55.1929 216.859 55.1929C216.687 55.1929 216.538 55.2233 216.413 55.2842C216.288 55.3415 216.191 55.4256 216.123 55.5366C216.055 55.644 216.021 55.7712 216.021 55.918H214.474C214.474 55.6709 214.531 55.4364 214.646 55.2144C214.761 54.9924 214.927 54.7972 215.146 54.6289C215.364 54.457 215.624 54.3228 215.924 54.2261C216.229 54.1294 216.569 54.0811 216.945 54.0811C217.396 54.0811 217.797 54.1562 218.148 54.3066C218.499 54.457 218.775 54.6826 218.975 54.9834C219.179 55.2842 219.281 55.6602 219.281 56.1113V58.5981C219.281 58.9168 219.301 59.1782 219.34 59.3823C219.38 59.5828 219.437 59.7583 219.512 59.9087V60H217.949C217.874 59.8424 217.817 59.6455 217.777 59.4092C217.742 59.1693 217.724 58.9294 217.724 58.6895ZM217.928 56.4604L217.938 57.3359H217.074C216.87 57.3359 216.692 57.3592 216.542 57.4058C216.392 57.4523 216.268 57.5186 216.171 57.6045C216.075 57.6868 216.003 57.7835 215.957 57.8945C215.914 58.0055 215.892 58.1273 215.892 58.2598C215.892 58.3923 215.923 58.5122 215.983 58.6196C216.044 58.7235 216.132 58.8058 216.247 58.8667C216.361 58.924 216.495 58.9526 216.649 58.9526C216.882 58.9526 217.084 58.9061 217.256 58.813C217.428 58.7199 217.561 58.6053 217.654 58.4692C217.75 58.3332 217.801 58.2043 217.804 58.0825L218.212 58.7378C218.155 58.8846 218.076 59.0368 217.976 59.1943C217.879 59.3519 217.756 59.5005 217.605 59.6401C217.455 59.7762 217.274 59.889 217.063 59.9785C216.852 60.0645 216.601 60.1074 216.311 60.1074C215.942 60.1074 215.607 60.034 215.307 59.8872C215.009 59.7368 214.773 59.5309 214.598 59.2695C214.426 59.0046 214.34 58.7038 214.34 58.3672C214.34 58.0628 214.397 57.7925 214.512 57.5562C214.626 57.3198 214.795 57.1211 215.017 56.96C215.242 56.7952 215.523 56.6717 215.86 56.5894C216.196 56.5034 216.587 56.4604 217.031 56.4604H217.928ZM224.384 54.1885V55.4023H221.526V54.1885H224.384ZM225.517 54.1885V60H223.97V54.1885H225.517ZM221.14 54.1885H222.66L222.504 57.1211C222.482 57.54 222.438 57.9089 222.37 58.2275C222.302 58.5462 222.21 58.8184 222.096 59.0439C221.985 59.2695 221.85 59.4539 221.693 59.5972C221.539 59.7368 221.358 59.8389 221.15 59.9033C220.946 59.9678 220.721 60 220.474 60H220.001L219.985 58.7808L220.184 58.7593C220.298 58.7485 220.398 58.7163 220.484 58.6626C220.574 58.6053 220.649 58.5247 220.71 58.4209C220.774 58.3135 220.828 58.1792 220.871 58.0181C220.914 57.8534 220.948 57.66 220.973 57.438C221.002 57.216 221.021 56.96 221.032 56.6699L221.14 54.1885ZM230.625 54.1885V55.4023H227.768V54.1885H230.625ZM231.758 54.1885V60H230.211V54.1885H231.758ZM227.381 54.1885H228.901L228.745 57.1211C228.724 57.54 228.679 57.9089 228.611 58.2275C228.543 58.5462 228.451 58.8184 228.337 59.0439C228.226 59.2695 228.092 59.4539 227.934 59.5972C227.78 59.7368 227.599 59.8389 227.392 59.9033C227.188 59.9678 226.962 60 226.715 60H226.242L226.226 58.7808L226.425 58.7593C226.539 58.7485 226.64 58.7163 226.726 58.6626C226.815 58.6053 226.89 58.5247 226.951 58.4209C227.016 58.3135 227.069 58.1792 227.112 58.0181C227.155 57.8534 227.189 57.66 227.214 57.438C227.243 57.216 227.263 56.96 227.273 56.6699L227.381 54.1885ZM236.093 58.6895V56.1006C236.093 55.9144 236.062 55.755 236.001 55.6226C235.941 55.4865 235.846 55.3809 235.717 55.3057C235.591 55.2305 235.429 55.1929 235.228 55.1929C235.056 55.1929 234.908 55.2233 234.782 55.2842C234.657 55.3415 234.56 55.4256 234.492 55.5366C234.424 55.644 234.39 55.7712 234.39 55.918H232.843C232.843 55.6709 232.901 55.4364 233.015 55.2144C233.13 54.9924 233.296 54.7972 233.515 54.6289C233.733 54.457 233.993 54.3228 234.293 54.2261C234.598 54.1294 234.938 54.0811 235.314 54.0811C235.765 54.0811 236.166 54.1562 236.517 54.3066C236.868 54.457 237.144 54.6826 237.344 54.9834C237.548 55.2842 237.65 55.6602 237.65 56.1113V58.5981C237.65 58.9168 237.67 59.1782 237.709 59.3823C237.749 59.5828 237.806 59.7583 237.881 59.9087V60H236.318C236.243 59.8424 236.186 59.6455 236.146 59.4092C236.111 59.1693 236.093 58.9294 236.093 58.6895ZM236.297 56.4604L236.308 57.3359H235.443C235.239 57.3359 235.062 57.3592 234.911 57.4058C234.761 57.4523 234.637 57.5186 234.541 57.6045C234.444 57.6868 234.372 57.7835 234.326 57.8945C234.283 58.0055 234.261 58.1273 234.261 58.2598C234.261 58.3923 234.292 58.5122 234.353 58.6196C234.413 58.7235 234.501 58.8058 234.616 58.8667C234.73 58.924 234.865 58.9526 235.019 58.9526C235.251 58.9526 235.454 58.9061 235.625 58.813C235.797 58.7199 235.93 58.6053 236.023 58.4692C236.12 58.3332 236.17 58.2043 236.173 58.0825L236.582 58.7378C236.524 58.8846 236.445 59.0368 236.345 59.1943C236.249 59.3519 236.125 59.5005 235.975 59.6401C235.824 59.7762 235.643 59.889 235.432 59.9785C235.221 60.0645 234.97 60.1074 234.68 60.1074C234.311 60.1074 233.977 60.034 233.676 59.8872C233.379 59.7368 233.142 59.5309 232.967 59.2695C232.795 59.0046 232.709 58.7038 232.709 58.3672C232.709 58.0628 232.766 57.7925 232.881 57.5562C232.995 57.3198 233.164 57.1211 233.386 56.96C233.611 56.7952 233.892 56.6717 234.229 56.5894C234.566 56.5034 234.956 56.4604 235.4 56.4604H236.297Z" fill="#3E7ABF"/>
<defs>
<linearGradient id="paint0_linear_65_63" x1="32.5023" y1="40.7655" x2="68.8608" y2="40.763" gradientUnits="userSpaceOnUse">
<stop offset="0.212121" stop-color="#060606"/>
<stop offset="1" stop-color="white"/>
</linearGradient>
<radialGradient id="paint1_radial_65_63" cx="0" cy="0" r="1" gradientUnits="userSpaceOnUse" gradientTransform="translate(44.2456 45.0959) rotate(-138.742) scale(68.3837 65.1569)">
<stop offset="0.269236" stop-color="#FEFEFE"/>
<stop offset="0.861985" stop-color="#1A1B21"/>
</radialGradient>
</defs>
</svg>
