<svg width="228" height="70" viewBox="0 0 228 70" fill="none" xmlns="http://www.w3.org/2000/svg">
<path fill-rule="evenodd" clip-rule="evenodd" d="M32.3926 6.38013C43.729 6.38013 53.2563 14.1252 55.9734 24.6131H46.173C43.8246 19.3387 38.5385 15.6608 32.3926 15.6607V6.38013ZM32.3926 45.8197C38.858 45.8196 44.3721 41.7494 46.5151 36.0321H56.1728C53.7563 46.941 44.0279 55.1006 32.3926 55.1006V45.8197Z" fill="url(#paint0_linear_56_27)"/>
<path fill-rule="evenodd" clip-rule="evenodd" d="M31.8958 0V20.4237H30.1355V0H31.8958ZM30.1469 61.4805L29.7599 41.0604L31.5132 41.033L31.9003 61.4531L30.1469 61.4805ZM24.4645 60.8475L27.863 40.7078L29.5959 40.9963L26.1972 61.1362L24.4645 60.8475ZM18.9989 59.1716L26.066 40.0065L27.7163 40.611L20.6491 59.7762L18.9989 59.1716ZM13.9399 56.5156L24.4323 38.9854L25.9381 39.8851L15.4458 57.4153L13.9399 56.5156ZM9.45779 52.9725L23.0136 37.6817L24.3269 38.8424L10.7711 54.1333L9.45779 52.9725ZM5.71015 48.6604L21.8622 36.1356L22.9349 37.5229L6.78285 50.0477L5.71015 48.6604ZM2.82355 43.7338L21.0152 34.4068L21.8128 35.9657L3.62117 45.2927L2.82355 43.7338ZM0.898428 38.3565L20.5028 32.5486L20.9979 34.2312L1.39363 40.0389L0.898428 38.3565ZM0 32.7182L20.3413 30.6299L20.5201 32.3743L0.178779 34.4627L0 32.7182ZM0.160697 27.0089L20.5381 28.7122L20.3937 30.4634L0.0163886 28.7603L0.160697 27.0089ZM1.37759 21.4322L21.0885 26.8682L20.621 28.5577L0.910065 23.1216L1.37759 21.4322ZM3.60377 16.1744L21.969 25.1558L21.1988 26.7284L2.8336 17.7471L3.60377 16.1744ZM6.7677 11.4154L23.1542 23.6325L22.1021 25.0403L5.71558 12.8233L6.7677 11.4154ZM10.7548 7.32531L24.598 22.3571L23.3053 23.5452L9.46208 8.51352L10.7548 7.32531ZM15.432 4.04218L26.2548 21.3706L24.7626 22.2977L13.9399 4.96921L15.432 4.04218ZM20.6346 1.67661L28.0639 20.7045L26.4273 21.3433L18.9981 2.31535L20.6346 1.67661ZM26.1858 0.315139L29.9657 20.3868L28.2398 20.7096L24.4598 0.63795L26.1858 0.315139Z" fill="url(#paint1_radial_56_27)"/>
<path d="M76.325 26.275C76.325 29.65 78.875 32.025 82.425 32.025C84.95 32.025 86.925 30.85 87.9 28.95H91.6C90.525 32.875 86.925 35.375 82.425 35.375C76.95 35.375 72.825 31.475 72.825 26.275C72.825 21 76.925 17.125 82.425 17.125C86.925 17.125 90.5 19.625 91.6 23.55H87.9C86.95 21.625 84.975 20.475 82.425 20.475C78.85 20.475 76.325 22.825 76.325 26.275ZM99.1834 35V20.725H92.9834V17.5H108.833V20.725H102.683V35H99.1834ZM107.342 35L116.117 17.5H120.017L128.842 35H124.942L122.867 30.875H113.292L111.217 35H107.342ZM114.892 27.675H121.242L118.067 21.375L114.892 27.675ZM131.821 28.275L132.846 17.5H147.496V35H143.996V20.725H136.071L135.346 28.025C134.821 33.475 133.271 35.375 129.246 35.375V32.175C130.896 32.175 131.521 31.125 131.821 28.275ZM150.651 17.5H154.151V22.75H159.751C163.476 22.75 166.551 25.525 166.551 28.875C166.551 32.425 163.651 35 159.751 35H150.651V17.5ZM163.051 28.875C163.051 27.175 161.626 25.85 159.751 25.85H154.151V31.925H159.751C161.676 31.925 163.051 30.625 163.051 28.875ZM174.111 31.75H176.036C177.361 29.525 178.011 26.925 178.011 24V17.5H190.761V31.75H192.961V39H189.461V35H177.611V39H174.111V31.75ZM179.661 31.75H187.261V20.725H181.511V24.075C181.511 26.875 180.911 29.4 179.661 31.75ZM195.011 35V17.5H203.861C207.486 17.5 209.936 19.3 209.936 22.075C209.936 23.8 208.861 25.225 207.211 26.025C209.386 26.75 210.736 28.2 210.736 30.125C210.736 33.05 207.811 35 203.861 35H195.011ZM206.586 22.625C206.586 21.35 205.436 20.5 203.861 20.5H198.511V24.7H203.861C205.336 24.7 206.586 23.825 206.586 22.625ZM207.211 29.8C207.211 28.375 205.961 27.6 203.861 27.6H198.511V31.975H203.861C205.886 31.975 207.211 31.15 207.211 29.8Z" fill="white"/>
<path d="M72.3545 52.1533V52.0405C72.3545 51.6144 72.4154 51.2223 72.5371 50.8643C72.6589 50.5026 72.8361 50.1893 73.0688 49.9243C73.3016 49.6593 73.5881 49.4535 73.9282 49.3066C74.2684 49.1562 74.6587 49.0811 75.0991 49.0811C75.5396 49.0811 75.9316 49.1562 76.2754 49.3066C76.6191 49.4535 76.9074 49.6593 77.1401 49.9243C77.3765 50.1893 77.5555 50.5026 77.6772 50.8643C77.799 51.2223 77.8599 51.6144 77.8599 52.0405V52.1533C77.8599 52.5758 77.799 52.9679 77.6772 53.3296C77.5555 53.6877 77.3765 54.001 77.1401 54.2695C76.9074 54.5345 76.6209 54.7404 76.2808 54.8872C75.9406 55.034 75.5503 55.1074 75.1099 55.1074C74.6694 55.1074 74.2773 55.034 73.9336 54.8872C73.5934 54.7404 73.3052 54.5345 73.0688 54.2695C72.8361 54.001 72.6589 53.6877 72.5371 53.3296C72.4154 52.9679 72.3545 52.5758 72.3545 52.1533ZM73.9014 52.0405V52.1533C73.9014 52.3968 73.9229 52.6242 73.9658 52.8354C74.0088 53.0467 74.0768 53.2329 74.1699 53.394C74.2666 53.5516 74.3919 53.6751 74.5459 53.7646C74.6999 53.8542 74.8879 53.8989 75.1099 53.8989C75.3247 53.8989 75.5091 53.8542 75.6631 53.7646C75.8171 53.6751 75.9406 53.5516 76.0337 53.394C76.1268 53.2329 76.1948 53.0467 76.2378 52.8354C76.2843 52.6242 76.3076 52.3968 76.3076 52.1533V52.0405C76.3076 51.8042 76.2843 51.5822 76.2378 51.3745C76.1948 51.1632 76.125 50.9771 76.0283 50.8159C75.9352 50.6512 75.8117 50.5223 75.6577 50.4292C75.5037 50.3361 75.3175 50.2896 75.0991 50.2896C74.8807 50.2896 74.6945 50.3361 74.5405 50.4292C74.3901 50.5223 74.2666 50.6512 74.1699 50.8159C74.0768 50.9771 74.0088 51.1632 73.9658 51.3745C73.9229 51.5822 73.9014 51.8042 73.9014 52.0405ZM82.7207 49.1885V50.4023H79.9062V49.1885H82.7207ZM80.3521 49.1885V55H78.8052V49.1885H80.3521ZM83.8486 49.1885V55H82.2964V49.1885H83.8486ZM88.0005 49.1885V55H86.4482V49.1885H88.0005ZM89.8696 49.1885V50.3862H84.606V49.1885H89.8696ZM90.2295 52.1533V52.0405C90.2295 51.6144 90.2904 51.2223 90.4121 50.8643C90.5339 50.5026 90.7111 50.1893 90.9438 49.9243C91.1766 49.6593 91.4631 49.4535 91.8032 49.3066C92.1434 49.1562 92.5337 49.0811 92.9741 49.0811C93.4146 49.0811 93.8066 49.1562 94.1504 49.3066C94.4941 49.4535 94.7824 49.6593 95.0151 49.9243C95.2515 50.1893 95.4305 50.5026 95.5522 50.8643C95.674 51.2223 95.7349 51.6144 95.7349 52.0405V52.1533C95.7349 52.5758 95.674 52.9679 95.5522 53.3296C95.4305 53.6877 95.2515 54.001 95.0151 54.2695C94.7824 54.5345 94.4959 54.7404 94.1558 54.8872C93.8156 55.034 93.4253 55.1074 92.9849 55.1074C92.5444 55.1074 92.1523 55.034 91.8086 54.8872C91.4684 54.7404 91.1802 54.5345 90.9438 54.2695C90.7111 54.001 90.5339 53.6877 90.4121 53.3296C90.2904 52.9679 90.2295 52.5758 90.2295 52.1533ZM91.7764 52.0405V52.1533C91.7764 52.3968 91.7979 52.6242 91.8408 52.8354C91.8838 53.0467 91.9518 53.2329 92.0449 53.394C92.1416 53.5516 92.2669 53.6751 92.4209 53.7646C92.5749 53.8542 92.7629 53.8989 92.9849 53.8989C93.1997 53.8989 93.3841 53.8542 93.5381 53.7646C93.6921 53.6751 93.8156 53.5516 93.9087 53.394C94.0018 53.2329 94.0698 53.0467 94.1128 52.8354C94.1593 52.6242 94.1826 52.3968 94.1826 52.1533V52.0405C94.1826 51.8042 94.1593 51.5822 94.1128 51.3745C94.0698 51.1632 94 50.9771 93.9033 50.8159C93.8102 50.6512 93.6867 50.5223 93.5327 50.4292C93.3787 50.3361 93.1925 50.2896 92.9741 50.2896C92.7557 50.2896 92.5695 50.3361 92.4155 50.4292C92.2651 50.5223 92.1416 50.6512 92.0449 50.8159C91.9518 50.9771 91.8838 51.1632 91.8408 51.3745C91.7979 51.5822 91.7764 51.8042 91.7764 52.0405ZM99.5806 52.5723H97.7598L97.749 51.5571H99.2529C99.4535 51.5571 99.6164 51.5374 99.7417 51.498C99.867 51.4551 99.9583 51.3924 100.016 51.3101C100.076 51.2241 100.107 51.1203 100.107 50.9985C100.107 50.8911 100.087 50.7998 100.048 50.7246C100.012 50.6458 99.9565 50.5814 99.8813 50.5312C99.8062 50.4811 99.7113 50.4453 99.5967 50.4238C99.4857 50.3988 99.355 50.3862 99.2046 50.3862H98.3345V55H96.7876V49.1885H99.2046C99.5841 49.1885 99.9243 49.2225 100.225 49.2905C100.526 49.355 100.782 49.4535 100.993 49.5859C101.208 49.7184 101.371 49.8867 101.482 50.0908C101.597 50.2913 101.654 50.5295 101.654 50.8052C101.654 50.9842 101.613 51.1525 101.53 51.3101C101.451 51.4676 101.333 51.6073 101.176 51.729C101.018 51.8507 100.823 51.951 100.59 52.0298C100.361 52.105 100.096 52.1515 99.7954 52.1694L99.5806 52.5723ZM99.5806 55H97.3784L97.9102 53.8022H99.5806C99.7703 53.8022 99.9261 53.779 100.048 53.7324C100.17 53.6859 100.259 53.6178 100.316 53.5283C100.377 53.4352 100.408 53.3242 100.408 53.1953C100.408 53.07 100.381 52.9608 100.327 52.8677C100.273 52.7746 100.186 52.703 100.064 52.6528C99.9458 52.5991 99.7847 52.5723 99.5806 52.5723H98.1357L98.1465 51.5571H99.79L100.166 51.9653C100.574 51.9904 100.911 52.0674 101.176 52.1963C101.441 52.3252 101.636 52.4899 101.761 52.6904C101.89 52.8874 101.955 53.104 101.955 53.3403C101.955 53.616 101.903 53.8577 101.799 54.0654C101.695 54.2731 101.541 54.4468 101.337 54.5864C101.136 54.7225 100.889 54.8263 100.596 54.8979C100.302 54.966 99.9637 55 99.5806 55ZM106.042 53.6895V51.1006C106.042 50.9144 106.012 50.755 105.951 50.6226C105.89 50.4865 105.795 50.3809 105.666 50.3057C105.541 50.2305 105.378 50.1929 105.177 50.1929C105.005 50.1929 104.857 50.2233 104.731 50.2842C104.606 50.3415 104.509 50.4256 104.441 50.5366C104.373 50.644 104.339 50.7712 104.339 50.918H102.792C102.792 50.6709 102.85 50.4364 102.964 50.2144C103.079 49.9924 103.245 49.7972 103.464 49.6289C103.682 49.457 103.942 49.3228 104.243 49.2261C104.547 49.1294 104.887 49.0811 105.263 49.0811C105.714 49.0811 106.115 49.1562 106.466 49.3066C106.817 49.457 107.093 49.6826 107.293 49.9834C107.498 50.2842 107.6 50.6602 107.6 51.1113V53.5981C107.6 53.9168 107.619 54.1782 107.659 54.3823C107.698 54.5828 107.755 54.7583 107.831 54.9087V55H106.268C106.192 54.8424 106.135 54.6455 106.096 54.4092C106.06 54.1693 106.042 53.9294 106.042 53.6895ZM106.246 51.4604L106.257 52.3359H105.392C105.188 52.3359 105.011 52.3592 104.86 52.4058C104.71 52.4523 104.586 52.5186 104.49 52.6045C104.393 52.6868 104.321 52.7835 104.275 52.8945C104.232 53.0055 104.21 53.1273 104.21 53.2598C104.21 53.3923 104.241 53.5122 104.302 53.6196C104.363 53.7235 104.45 53.8058 104.565 53.8667C104.68 53.924 104.814 53.9526 104.968 53.9526C105.201 53.9526 105.403 53.9061 105.575 53.813C105.747 53.7199 105.879 53.6053 105.972 53.4692C106.069 53.3332 106.119 53.2043 106.123 53.0825L106.531 53.7378C106.473 53.8846 106.395 54.0368 106.294 54.1943C106.198 54.3519 106.074 54.5005 105.924 54.6401C105.773 54.7762 105.593 54.889 105.381 54.9785C105.17 55.0645 104.919 55.1074 104.629 55.1074C104.261 55.1074 103.926 55.034 103.625 54.8872C103.328 54.7368 103.091 54.5309 102.916 54.2695C102.744 54.0046 102.658 53.7038 102.658 53.3672C102.658 53.0628 102.715 52.7925 102.83 52.5562C102.945 52.3198 103.113 52.1211 103.335 51.96C103.561 51.7952 103.842 51.6717 104.178 51.5894C104.515 51.5034 104.905 51.4604 105.349 51.4604H106.246ZM110.043 52.0996H111.612L109.995 55H108.432L110.043 52.0996ZM111.085 49.1885H113.637V55H112.09V50.3862H111.085C110.874 50.3862 110.699 50.4256 110.559 50.5044C110.419 50.5796 110.316 50.6781 110.248 50.7998C110.183 50.918 110.151 51.0397 110.151 51.165C110.151 51.2868 110.183 51.4049 110.248 51.5195C110.312 51.6341 110.412 51.729 110.548 51.8042C110.684 51.8794 110.854 51.917 111.059 51.917H112.665V52.9697H111.059C110.675 52.9697 110.332 52.9232 110.027 52.8301C109.727 52.737 109.469 52.6081 109.254 52.4434C109.043 52.2751 108.88 52.0799 108.765 51.8579C108.654 51.6323 108.599 51.3853 108.599 51.1167C108.599 50.8374 108.656 50.5814 108.771 50.3486C108.885 50.1159 109.05 49.9118 109.265 49.7363C109.479 49.5609 109.739 49.4266 110.043 49.3335C110.351 49.2368 110.699 49.1885 111.085 49.1885ZM121.597 49.1885V50.4023H118.782V49.1885H121.597ZM119.228 49.1885V55H117.681V49.1885H119.228ZM122.725 49.1885V55H121.172V49.1885H122.725ZM125.464 50.3057V57.2344H123.917V49.1885H125.351L125.464 50.3057ZM129.143 52.0298V52.1426C129.143 52.5651 129.093 52.9572 128.993 53.3188C128.896 53.6805 128.753 53.9956 128.563 54.2642C128.373 54.5291 128.137 54.7368 127.854 54.8872C127.575 55.034 127.252 55.1074 126.887 55.1074C126.533 55.1074 126.225 55.0358 125.963 54.8926C125.702 54.7493 125.482 54.5488 125.303 54.291C125.127 54.0296 124.986 53.7271 124.878 53.3833C124.771 53.0396 124.689 52.6707 124.631 52.2769V51.9814C124.689 51.5589 124.771 51.1722 124.878 50.8213C124.986 50.4668 125.127 50.1606 125.303 49.9028C125.482 49.6414 125.7 49.4391 125.958 49.2959C126.219 49.1527 126.526 49.0811 126.876 49.0811C127.245 49.0811 127.569 49.1509 127.849 49.2905C128.132 49.4302 128.368 49.6307 128.558 49.8921C128.751 50.1535 128.896 50.465 128.993 50.8267C129.093 51.1883 129.143 51.5894 129.143 52.0298ZM127.591 52.1426V52.0298C127.591 51.7827 127.569 51.5553 127.526 51.3477C127.487 51.1364 127.423 50.952 127.333 50.7944C127.247 50.6369 127.132 50.5151 126.989 50.4292C126.85 50.3397 126.68 50.2949 126.479 50.2949C126.268 50.2949 126.087 50.3289 125.937 50.397C125.79 50.465 125.67 50.5635 125.577 50.6924C125.484 50.8213 125.414 50.9753 125.367 51.1543C125.321 51.3333 125.292 51.5356 125.281 51.7612V52.5078C125.299 52.7728 125.349 53.0109 125.432 53.2222C125.514 53.4299 125.641 53.5946 125.813 53.7163C125.985 53.8381 126.21 53.8989 126.49 53.8989C126.694 53.8989 126.866 53.8542 127.005 53.7646C127.145 53.6715 127.258 53.5444 127.344 53.3833C127.433 53.2222 127.496 53.036 127.532 52.8247C127.571 52.6134 127.591 52.3861 127.591 52.1426ZM129.857 52.1533V52.0405C129.857 51.6144 129.918 51.2223 130.04 50.8643C130.162 50.5026 130.339 50.1893 130.572 49.9243C130.805 49.6593 131.091 49.4535 131.431 49.3066C131.771 49.1562 132.162 49.0811 132.602 49.0811C133.042 49.0811 133.435 49.1562 133.778 49.3066C134.122 49.4535 134.41 49.6593 134.643 49.9243C134.879 50.1893 135.058 50.5026 135.18 50.8643C135.302 51.2223 135.363 51.6144 135.363 52.0405V52.1533C135.363 52.5758 135.302 52.9679 135.18 53.3296C135.058 53.6877 134.879 54.001 134.643 54.2695C134.41 54.5345 134.124 54.7404 133.784 54.8872C133.444 55.034 133.053 55.1074 132.613 55.1074C132.172 55.1074 131.78 55.034 131.437 54.8872C131.096 54.7404 130.808 54.5345 130.572 54.2695C130.339 54.001 130.162 53.6877 130.04 53.3296C129.918 52.9679 129.857 52.5758 129.857 52.1533ZM131.404 52.0405V52.1533C131.404 52.3968 131.426 52.6242 131.469 52.8354C131.512 53.0467 131.58 53.2329 131.673 53.394C131.77 53.5516 131.895 53.6751 132.049 53.7646C132.203 53.8542 132.391 53.8989 132.613 53.8989C132.828 53.8989 133.012 53.8542 133.166 53.7646C133.32 53.6751 133.444 53.5516 133.537 53.394C133.63 53.2329 133.698 53.0467 133.741 52.8354C133.787 52.6242 133.811 52.3968 133.811 52.1533V52.0405C133.811 51.8042 133.787 51.5822 133.741 51.3745C133.698 51.1632 133.628 50.9771 133.531 50.8159C133.438 50.6512 133.315 50.5223 133.161 50.4292C133.007 50.3361 132.82 50.2896 132.602 50.2896C132.384 50.2896 132.197 50.3361 132.043 50.4292C131.893 50.5223 131.77 50.6512 131.673 50.8159C131.58 50.9771 131.512 51.1632 131.469 51.3745C131.426 51.5822 131.404 51.8042 131.404 52.0405ZM136.974 49.1885H138.521L138.473 51.1328C138.458 51.7559 138.387 52.2912 138.258 52.7388C138.129 53.1864 137.957 53.5623 137.742 53.8667C137.527 54.1711 137.282 54.4146 137.006 54.5972C136.734 54.7762 136.448 54.9105 136.147 55H135.857L135.841 53.8076L136.002 53.7915C136.185 53.6017 136.335 53.4173 136.453 53.2383C136.571 53.0557 136.663 52.8641 136.727 52.6636C136.792 52.4631 136.838 52.2393 136.867 51.9922C136.899 51.7451 136.919 51.4587 136.926 51.1328L136.974 49.1885ZM137.393 49.1885H141.244V55H139.703V50.4292H137.393V49.1885ZM135.502 53.7915H142.077V56.7456H140.53V55H137.087V56.7456H135.502V53.7915ZM146.003 53.6895V51.1006C146.003 50.9144 145.972 50.755 145.912 50.6226C145.851 50.4865 145.756 50.3809 145.627 50.3057C145.502 50.2305 145.339 50.1929 145.138 50.1929C144.966 50.1929 144.818 50.2233 144.692 50.2842C144.567 50.3415 144.47 50.4256 144.402 50.5366C144.334 50.644 144.3 50.7712 144.3 50.918H142.753C142.753 50.6709 142.811 50.4364 142.925 50.2144C143.04 49.9924 143.206 49.7972 143.425 49.6289C143.643 49.457 143.903 49.3228 144.204 49.2261C144.508 49.1294 144.848 49.0811 145.224 49.0811C145.675 49.0811 146.076 49.1562 146.427 49.3066C146.778 49.457 147.054 49.6826 147.254 49.9834C147.458 50.2842 147.561 50.6602 147.561 51.1113V53.5981C147.561 53.9168 147.58 54.1782 147.62 54.3823C147.659 54.5828 147.716 54.7583 147.792 54.9087V55H146.229C146.153 54.8424 146.096 54.6455 146.057 54.4092C146.021 54.1693 146.003 53.9294 146.003 53.6895ZM146.207 51.4604L146.218 52.3359H145.353C145.149 52.3359 144.972 52.3592 144.821 52.4058C144.671 52.4523 144.547 52.5186 144.451 52.6045C144.354 52.6868 144.282 52.7835 144.236 52.8945C144.193 53.0055 144.171 53.1273 144.171 53.2598C144.171 53.3923 144.202 53.5122 144.263 53.6196C144.324 53.7235 144.411 53.8058 144.526 53.8667C144.64 53.924 144.775 53.9526 144.929 53.9526C145.161 53.9526 145.364 53.9061 145.536 53.813C145.708 53.7199 145.84 53.6053 145.933 53.4692C146.03 53.3332 146.08 53.2043 146.083 53.0825L146.492 53.7378C146.434 53.8846 146.356 54.0368 146.255 54.1943C146.159 54.3519 146.035 54.5005 145.885 54.6401C145.734 54.7762 145.554 54.889 145.342 54.9785C145.131 55.0645 144.88 55.1074 144.59 55.1074C144.222 55.1074 143.887 55.034 143.586 54.8872C143.289 54.7368 143.052 54.5309 142.877 54.2695C142.705 54.0046 142.619 53.7038 142.619 53.3672C142.619 53.0628 142.676 52.7925 142.791 52.5562C142.906 52.3198 143.074 52.1211 143.296 51.96C143.521 51.7952 143.803 51.6717 144.139 51.5894C144.476 51.5034 144.866 51.4604 145.31 51.4604H146.207ZM150.805 52.8086L148.388 49.1885H150.305L151.541 51.3799H152.652L152.464 52.8086H150.805ZM151.562 52.5454L150.235 55H148.372L150.3 51.7988L151.562 52.5454ZM153.657 49.1885V55H152.11V49.1885H153.657ZM157.395 49.1885L154.978 52.8086H153.318L153.13 51.3799H154.242L155.472 49.1885H157.395ZM155.542 55L154.215 52.5454L155.526 51.7988L157.443 55H155.542ZM161.332 53.6895V51.1006C161.332 50.9144 161.302 50.755 161.241 50.6226C161.18 50.4865 161.085 50.3809 160.956 50.3057C160.831 50.2305 160.668 50.1929 160.467 50.1929C160.295 50.1929 160.147 50.2233 160.021 50.2842C159.896 50.3415 159.799 50.4256 159.731 50.5366C159.663 50.644 159.629 50.7712 159.629 50.918H158.083C158.083 50.6709 158.14 50.4364 158.254 50.2144C158.369 49.9924 158.535 49.7972 158.754 49.6289C158.972 49.457 159.232 49.3228 159.533 49.2261C159.837 49.1294 160.177 49.0811 160.553 49.0811C161.004 49.0811 161.405 49.1562 161.756 49.3066C162.107 49.457 162.383 49.6826 162.583 49.9834C162.788 50.2842 162.89 50.6602 162.89 51.1113V53.5981C162.89 53.9168 162.909 54.1782 162.949 54.3823C162.988 54.5828 163.045 54.7583 163.121 54.9087V55H161.558C161.482 54.8424 161.425 54.6455 161.386 54.4092C161.35 54.1693 161.332 53.9294 161.332 53.6895ZM161.536 51.4604L161.547 52.3359H160.682C160.478 52.3359 160.301 52.3592 160.15 52.4058C160 52.4523 159.876 52.5186 159.78 52.6045C159.683 52.6868 159.611 52.7835 159.565 52.8945C159.522 53.0055 159.5 53.1273 159.5 53.2598C159.5 53.3923 159.531 53.5122 159.592 53.6196C159.653 53.7235 159.74 53.8058 159.855 53.8667C159.97 53.924 160.104 53.9526 160.258 53.9526C160.491 53.9526 160.693 53.9061 160.865 53.813C161.037 53.7199 161.169 53.6053 161.262 53.4692C161.359 53.3332 161.409 53.2043 161.413 53.0825L161.821 53.7378C161.764 53.8846 161.685 54.0368 161.584 54.1943C161.488 54.3519 161.364 54.5005 161.214 54.6401C161.063 54.7762 160.883 54.889 160.671 54.9785C160.46 55.0645 160.209 55.1074 159.919 55.1074C159.551 55.1074 159.216 55.034 158.915 54.8872C158.618 54.7368 158.382 54.5309 158.206 54.2695C158.034 54.0046 157.948 53.7038 157.948 53.3672C157.948 53.0628 158.006 52.7925 158.12 52.5562C158.235 52.3198 158.403 52.1211 158.625 51.96C158.851 51.7952 159.132 51.6717 159.468 51.5894C159.805 51.5034 160.195 51.4604 160.639 51.4604H161.536ZM170.355 53.2222L171.881 49.1885H173.143L170.876 55H169.834L167.579 49.1885H168.841L170.355 53.2222ZM168.47 49.1885V55H166.923V49.1885H168.47ZM172.278 55V49.1885H173.825V55H172.278ZM177.854 55.1074C177.402 55.1074 176.998 55.0358 176.64 54.8926C176.282 54.7458 175.977 54.5435 175.727 54.2856C175.479 54.0278 175.29 53.7288 175.157 53.3887C175.025 53.0449 174.958 52.6797 174.958 52.293V52.0781C174.958 51.6377 175.021 51.2349 175.146 50.8696C175.272 50.5044 175.451 50.1875 175.684 49.9189C175.92 49.6504 176.206 49.4445 176.543 49.3013C176.88 49.1545 177.259 49.0811 177.682 49.0811C178.093 49.0811 178.459 49.1491 178.777 49.2852C179.096 49.4212 179.363 49.6146 179.578 49.8652C179.796 50.1159 179.961 50.4167 180.072 50.7676C180.183 51.1149 180.238 51.5016 180.238 51.9277V52.5723H175.619V51.541H178.718V51.4229C178.718 51.208 178.679 51.0164 178.6 50.8481C178.525 50.6763 178.41 50.5402 178.256 50.4399C178.102 50.3397 177.905 50.2896 177.666 50.2896C177.461 50.2896 177.286 50.3343 177.139 50.4238C176.992 50.5133 176.872 50.6387 176.779 50.7998C176.69 50.9609 176.622 51.1507 176.575 51.3691C176.532 51.584 176.511 51.8203 176.511 52.0781V52.293C176.511 52.5257 176.543 52.7406 176.607 52.9375C176.675 53.1344 176.77 53.3045 176.892 53.4478C177.017 53.591 177.168 53.702 177.343 53.7808C177.522 53.8595 177.725 53.8989 177.95 53.8989C178.229 53.8989 178.489 53.8452 178.729 53.7378C178.972 53.6268 179.182 53.4603 179.357 53.2383L180.109 54.0547C179.988 54.2301 179.821 54.3984 179.61 54.5596C179.402 54.7207 179.152 54.8532 178.858 54.957C178.564 55.0573 178.229 55.1074 177.854 55.1074ZM184.014 49.1885V55H182.462V49.1885H184.014ZM185.883 49.1885V50.3862H180.62V49.1885H185.883ZM189.724 53.6895V51.1006C189.724 50.9144 189.693 50.755 189.632 50.6226C189.571 50.4865 189.477 50.3809 189.348 50.3057C189.222 50.2305 189.059 50.1929 188.859 50.1929C188.687 50.1929 188.538 50.2233 188.413 50.2842C188.288 50.3415 188.191 50.4256 188.123 50.5366C188.055 50.644 188.021 50.7712 188.021 50.918H186.474C186.474 50.6709 186.531 50.4364 186.646 50.2144C186.761 49.9924 186.927 49.7972 187.146 49.6289C187.364 49.457 187.624 49.3228 187.924 49.2261C188.229 49.1294 188.569 49.0811 188.945 49.0811C189.396 49.0811 189.797 49.1562 190.148 49.3066C190.499 49.457 190.775 49.6826 190.975 49.9834C191.179 50.2842 191.281 50.6602 191.281 51.1113V53.5981C191.281 53.9168 191.301 54.1782 191.34 54.3823C191.38 54.5828 191.437 54.7583 191.512 54.9087V55H189.949C189.874 54.8424 189.817 54.6455 189.777 54.4092C189.742 54.1693 189.724 53.9294 189.724 53.6895ZM189.928 51.4604L189.938 52.3359H189.074C188.87 52.3359 188.692 52.3592 188.542 52.4058C188.392 52.4523 188.268 52.5186 188.171 52.6045C188.075 52.6868 188.003 52.7835 187.957 52.8945C187.914 53.0055 187.892 53.1273 187.892 53.2598C187.892 53.3923 187.923 53.5122 187.983 53.6196C188.044 53.7235 188.132 53.8058 188.247 53.8667C188.361 53.924 188.495 53.9526 188.649 53.9526C188.882 53.9526 189.084 53.9061 189.256 53.813C189.428 53.7199 189.561 53.6053 189.654 53.4692C189.75 53.3332 189.801 53.2043 189.804 53.0825L190.212 53.7378C190.155 53.8846 190.076 54.0368 189.976 54.1943C189.879 54.3519 189.756 54.5005 189.605 54.6401C189.455 54.7762 189.274 54.889 189.063 54.9785C188.852 55.0645 188.601 55.1074 188.311 55.1074C187.942 55.1074 187.607 55.034 187.307 54.8872C187.009 54.7368 186.773 54.5309 186.598 54.2695C186.426 54.0046 186.34 53.7038 186.34 53.3672C186.34 53.0628 186.397 52.7925 186.512 52.5562C186.626 52.3198 186.795 52.1211 187.017 51.96C187.242 51.7952 187.523 51.6717 187.86 51.5894C188.196 51.5034 188.587 51.4604 189.031 51.4604H189.928ZM196.384 49.1885V50.4023H193.526V49.1885H196.384ZM197.517 49.1885V55H195.97V49.1885H197.517ZM193.14 49.1885H194.66L194.504 52.1211C194.482 52.54 194.438 52.9089 194.37 53.2275C194.302 53.5462 194.21 53.8184 194.096 54.0439C193.985 54.2695 193.85 54.4539 193.693 54.5972C193.539 54.7368 193.358 54.8389 193.15 54.9033C192.946 54.9678 192.721 55 192.474 55H192.001L191.985 53.7808L192.184 53.7593C192.298 53.7485 192.398 53.7163 192.484 53.6626C192.574 53.6053 192.649 53.5247 192.71 53.4209C192.774 53.3135 192.828 53.1792 192.871 53.0181C192.914 52.8534 192.948 52.66 192.973 52.438C193.002 52.216 193.021 51.96 193.032 51.6699L193.14 49.1885ZM202.625 49.1885V50.4023H199.768V49.1885H202.625ZM203.758 49.1885V55H202.211V49.1885H203.758ZM199.381 49.1885H200.901L200.745 52.1211C200.724 52.54 200.679 52.9089 200.611 53.2275C200.543 53.5462 200.451 53.8184 200.337 54.0439C200.226 54.2695 200.092 54.4539 199.934 54.5972C199.78 54.7368 199.599 54.8389 199.392 54.9033C199.188 54.9678 198.962 55 198.715 55H198.242L198.226 53.7808L198.425 53.7593C198.539 53.7485 198.64 53.7163 198.726 53.6626C198.815 53.6053 198.89 53.5247 198.951 53.4209C199.016 53.3135 199.069 53.1792 199.112 53.0181C199.155 52.8534 199.189 52.66 199.214 52.438C199.243 52.216 199.263 51.96 199.273 51.6699L199.381 49.1885ZM208.093 53.6895V51.1006C208.093 50.9144 208.062 50.755 208.001 50.6226C207.941 50.4865 207.846 50.3809 207.717 50.3057C207.591 50.2305 207.429 50.1929 207.228 50.1929C207.056 50.1929 206.908 50.2233 206.782 50.2842C206.657 50.3415 206.56 50.4256 206.492 50.5366C206.424 50.644 206.39 50.7712 206.39 50.918H204.843C204.843 50.6709 204.901 50.4364 205.015 50.2144C205.13 49.9924 205.296 49.7972 205.515 49.6289C205.733 49.457 205.993 49.3228 206.293 49.2261C206.598 49.1294 206.938 49.0811 207.314 49.0811C207.765 49.0811 208.166 49.1562 208.517 49.3066C208.868 49.457 209.144 49.6826 209.344 49.9834C209.548 50.2842 209.65 50.6602 209.65 51.1113V53.5981C209.65 53.9168 209.67 54.1782 209.709 54.3823C209.749 54.5828 209.806 54.7583 209.881 54.9087V55H208.318C208.243 54.8424 208.186 54.6455 208.146 54.4092C208.111 54.1693 208.093 53.9294 208.093 53.6895ZM208.297 51.4604L208.308 52.3359H207.443C207.239 52.3359 207.062 52.3592 206.911 52.4058C206.761 52.4523 206.637 52.5186 206.541 52.6045C206.444 52.6868 206.372 52.7835 206.326 52.8945C206.283 53.0055 206.261 53.1273 206.261 53.2598C206.261 53.3923 206.292 53.5122 206.353 53.6196C206.413 53.7235 206.501 53.8058 206.616 53.8667C206.73 53.924 206.865 53.9526 207.019 53.9526C207.251 53.9526 207.454 53.9061 207.625 53.813C207.797 53.7199 207.93 53.6053 208.023 53.4692C208.12 53.3332 208.17 53.2043 208.173 53.0825L208.582 53.7378C208.524 53.8846 208.445 54.0368 208.345 54.1943C208.249 54.3519 208.125 54.5005 207.975 54.6401C207.824 54.7762 207.643 54.889 207.432 54.9785C207.221 55.0645 206.97 55.1074 206.68 55.1074C206.311 55.1074 205.977 55.034 205.676 54.8872C205.379 54.7368 205.142 54.5309 204.967 54.2695C204.795 54.0046 204.709 53.7038 204.709 53.3672C204.709 53.0628 204.766 52.7925 204.881 52.5562C204.995 52.3198 205.164 52.1211 205.386 51.96C205.611 51.7952 205.892 51.6717 206.229 51.5894C206.566 51.5034 206.956 51.4604 207.4 51.4604H208.297Z" fill="#3E7ABF"/>
<defs>
<linearGradient id="paint0_linear_56_27" x1="24.3691" y1="30.5646" x2="51.6293" y2="30.5627" gradientUnits="userSpaceOnUse">
<stop offset="0.212121" stop-color="#060606"/>
<stop offset="1" stop-color="white"/>
</linearGradient>
<radialGradient id="paint1_radial_56_27" cx="0" cy="0" r="1" gradientUnits="userSpaceOnUse" gradientTransform="translate(33.1737 33.8112) rotate(-138.742) scale(51.2715 48.8522)">
<stop offset="0.269236" stop-color="#FEFEFE"/>
<stop offset="0.861985" stop-color="#1A1B21"/>
</radialGradient>
</defs>
</svg>
