<svg width="24.000000" height="24.000000" viewBox="0 0 24 24" fill="none" xmlns="http://www.w3.org/2000/svg" xmlns:xlink="http://www.w3.org/1999/xlink">
	<desc>
			Created with Pixso.
	</desc>
	<defs/>
	<path id="seach_icon" d="M23.92 22.27L16.13 14.48C17.34 12.92 18 11.01 18 9C18 6.59 17.06 4.33 15.36 2.63C13.66 0.93 11.4 0 9 0C6.59 0 4.33 0.93 2.63 2.63C0.93 4.33 0 6.59 0 9C0 11.4 0.93 13.66 2.63 15.36C4.33 17.06 6.59 18 9 18C11 18 12.91 17.34 14.48 16.13L22.27 23.92C22.29 23.95 22.32 23.96 22.35 23.98C22.38 23.99 22.41 24 22.44 24C22.47 24 22.51 23.99 22.54 23.98C22.56 23.96 22.59 23.95 22.62 23.92L23.92 22.62C23.95 22.6 23.96 22.57 23.98 22.54C23.99 22.51 24 22.48 24 22.44C24 22.41 23.99 22.38 23.98 22.35C23.96 22.32 23.95 22.29 23.92 22.27ZM13.75 13.75C12.48 15.02 10.79 15.72 9 15.72C7.2 15.72 5.52 15.02 4.24 13.75C2.97 12.48 2.27 10.79 2.27 9C2.27 7.2 2.97 5.51 4.24 4.24C5.52 2.97 7.2 2.28 9 2.28C10.79 2.28 12.48 2.97 13.75 4.24C15.02 5.52 15.71 7.2 15.71 9C15.71 10.79 15.02 12.48 13.75 13.75Z" fill="#FFFFFF" fill-opacity="1.000000" fill-rule="evenodd"/>
</svg>
