<svg class="index-catalog__card-animation-chamomile" alt="chamomile" width="76.000000" height="76.234863" viewBox="0 0 76 76.2349" fill="none" xmlns="http://www.w3.org/2000/svg" xmlns:xlink="http://www.w3.org/1999/xlink">
	<path id="Vector" d="M36.76 76.23L36.76 51.51L32.23 75.87L29.82 75.41L34.34 51.1L25.43 74.21L23.13 73.3L32.02 50.26L19.04 71.3L16.95 69.98L29.89 49L13.3 67.25L11.49 65.56L28.03 47.37L8.39 62.2L6.92 60.2L26.52 45.4L4.49 56.31L3.41 54.08L25.39 43.19L1.74 49.8L1.08 47.4L24.65 40.82L0.22 42.89L0.02 40.4L24.38 38.34L0 35.81L0.25 33.33L24.58 35.86L1.07 28.81L1.76 26.42L25.23 33.46L3.4 22.13L4.52 19.91L26.29 31.22L6.91 16L8.41 14.03L27.74 29.21L11.48 10.63L13.32 8.99L29.54 27.52L16.95 6.22L19.06 4.94L31.61 26.17L23.13 2.9L25.44 2.04L33.94 25.37C28.62 27.1 24.76 32.15 24.76 38.11C24.76 45.5 30.69 51.49 38 51.49C45.3 51.49 51.23 45.5 51.23 38.11C51.23 32.15 47.37 27.1 42.05 25.37L50.55 2.04L52.86 2.9L44.38 26.17L56.93 4.94L59.04 6.22L46.45 27.52L62.67 8.99L64.51 10.63L48.25 29.21L67.58 14.03L69.08 16L49.7 31.22L71.47 19.91L72.59 22.13L50.76 33.46L74.23 26.42L74.92 28.81L51.41 35.86L75.74 33.33L76 35.81L51.61 38.34L75.97 40.4L75.77 42.89L51.34 40.82L74.91 47.4L74.25 49.8L50.6 43.19L72.58 54.08L71.5 56.31L49.47 45.4L69.07 60.2L67.6 62.2L47.96 47.37L64.51 65.56L62.69 67.25L46.1 49L59.04 69.98L56.95 71.3L43.97 50.26L52.86 73.3L50.56 74.21L41.65 51.1L46.17 75.41L43.76 75.87L39.23 51.51L39.23 76.23L36.76 76.23L36.76 76.23ZM39.24 0L39.27 24.79C38.85 24.75 38.43 24.73 38 24.73C37.6 24.73 37.21 24.75 36.82 24.78L36.78 0L39.24 0L39.24 0ZM32.24 0.36L36.67 24.8C35.85 24.88 35.04 25.04 34.26 25.27L29.83 0.81L32.24 0.36ZM46.17 0.8L41.84 25.3C41.06 25.07 40.26 24.9 39.42 24.81L43.75 0.36L46.17 0.8L46.17 0.8Z" fill="#FFFFFF" fill-opacity="1.000000" fill-rule="evenodd"/>
</svg>
